<svg width="339" height="339" viewBox="0 0 339 339" fill="none" xmlns="http://www.w3.org/2000/svg">
<path d="M305.557 139.403C314.874 138.94 322.051 131.014 321.589 121.698C321.127 112.382 313.2 105.204 303.884 105.666C294.568 106.128 287.39 114.055 287.852 123.371C288.315 132.687 296.241 139.865 305.557 139.403Z" fill="#EBEBEB"/>
<path fill-rule="evenodd" clip-rule="evenodd" d="M302.428 129.234C301.981 128.956 301.594 128.556 300.991 128.603C300.767 128.603 300.815 128.434 300.815 128.312C300.815 126.052 300.815 123.803 300.815 121.566C300.815 121.396 300.815 121.267 301.005 121.172C302.72 120.311 303.466 118.603 304.517 117.145C305.056 116.421 305.445 115.596 305.659 114.719C305.873 113.842 305.909 112.931 305.764 112.04C305.696 111.538 305.934 111.307 306.388 111.206C306.617 111.127 306.865 111.124 307.096 111.197C307.327 111.27 307.528 111.416 307.669 111.613C308.162 112.53 308.495 113.525 308.652 114.555C308.646 115.407 308.542 116.256 308.341 117.084C308.259 117.701 308.117 118.311 308.002 118.942C308.151 119.05 308.327 118.989 308.49 118.996H314.185C314.992 118.996 315.378 119.227 315.493 119.755C315.554 120.083 315.506 120.421 315.357 120.718C315.208 121.016 314.965 121.256 314.666 121.403C314.524 121.477 314.266 121.403 314.246 121.633C314.226 121.864 314.497 121.837 314.626 121.932C315.304 122.4 315.188 123.376 314.388 123.966C314.198 124.101 313.826 124.04 313.819 124.318C313.812 124.596 314.165 124.542 314.321 124.698C314.443 124.856 314.526 125.041 314.565 125.237C314.603 125.433 314.596 125.636 314.543 125.829C314.489 126.021 314.392 126.199 314.258 126.348C314.124 126.496 313.957 126.611 313.771 126.685C313.655 126.719 313.542 126.762 313.432 126.813C313.337 126.874 313.249 126.949 313.432 127.078C313.627 127.167 313.792 127.31 313.908 127.491C314.023 127.671 314.085 127.881 314.085 128.095C314.085 128.309 314.023 128.519 313.908 128.699C313.792 128.879 313.627 129.022 313.432 129.112L313.188 129.295C312.886 129.473 312.534 129.549 312.185 129.512H303.215C303.072 129.521 302.928 129.501 302.793 129.454C302.658 129.406 302.534 129.331 302.428 129.234Z" fill="white"/>
<path fill-rule="evenodd" clip-rule="evenodd" d="M293.954 125.267C293.954 123.837 293.954 122.406 293.954 120.976C293.954 120.691 293.954 120.549 294.34 120.549C296.085 120.549 297.827 120.549 299.567 120.549C299.913 120.549 299.961 120.664 299.961 120.969C299.961 123.844 299.961 126.718 299.961 129.6C299.961 129.966 299.866 130.068 299.5 130.061C297.805 130.061 296.114 130.061 294.428 130.061C294.008 130.061 293.947 129.919 293.954 129.546C293.967 128.142 293.954 126.698 293.954 125.267Z" fill="white"/>
<path d="M110.778 91.4353H33.3711V41.8057H110.778V91.4353ZM34.0491 90.7573H110.1V42.4837H34.0491V90.7573Z" fill="#EBEBEB"/>
<path d="M110.778 48.9925H33.3711V41.8057H110.778V48.9925ZM34.0491 48.3145H110.1V42.4837H34.0491V48.3145Z" fill="#EBEBEB"/>
<path d="M39.8128 45.4262C39.8128 45.751 39.7164 46.0685 39.5358 46.3384C39.3552 46.6084 39.0985 46.8187 38.7983 46.9427C38.4981 47.0667 38.1679 47.0988 37.8494 47.0349C37.531 46.971 37.2386 46.8141 37.0094 46.584C36.7802 46.3538 36.6245 46.0608 36.562 45.7421C36.4994 45.4234 36.5329 45.0933 36.6581 44.7936C36.7833 44.4939 36.9947 44.2381 37.2654 44.0586C37.5361 43.8792 37.854 43.7841 38.1788 43.7854C38.3939 43.7854 38.607 43.8279 38.8057 43.9104C39.0043 43.993 39.1848 44.1139 39.3366 44.2664C39.4884 44.4188 39.6086 44.5998 39.6903 44.7988C39.7721 44.9978 39.8137 45.211 39.8128 45.4262Z" fill="#C7C7C7"/>
<path d="M46.4906 45.4262C46.4893 45.749 46.3923 46.0643 46.2119 46.3321C46.0316 46.5999 45.7759 46.8083 45.4772 46.9309C45.1786 47.0536 44.8502 47.0849 44.5337 47.0211C44.2172 46.9573 43.9267 46.8012 43.6989 46.5724C43.471 46.3436 43.3161 46.0524 43.2536 45.7357C43.1911 45.4189 43.2238 45.0907 43.3477 44.7925C43.4716 44.4944 43.681 44.2396 43.9495 44.0603C44.2181 43.8811 44.5337 43.7854 44.8566 43.7854C45.0718 43.7854 45.2848 43.8279 45.4835 43.9104C45.6822 43.993 45.8626 44.1139 46.0144 44.2664C46.1663 44.4188 46.2865 44.5998 46.3682 44.7988C46.4499 44.9978 46.4915 45.211 46.4906 45.4262Z" fill="#EBEBEB"/>
<path d="M51.5422 47.0805C52.4446 47.0805 53.1762 46.3489 53.1762 45.4465C53.1762 44.5441 52.4446 43.8125 51.5422 43.8125C50.6398 43.8125 49.9082 44.5441 49.9082 45.4465C49.9082 46.3489 50.6398 47.0805 51.5422 47.0805Z" fill="#0D5FAA"/>
<path d="M27.2964 152.211C26.5041 148.966 26.6919 145.559 27.8358 142.421C28.9798 139.282 31.0287 136.554 33.7234 134.58C36.418 132.606 39.6375 131.476 42.9746 131.332C46.3118 131.188 49.6167 132.036 52.4716 133.77C55.3264 135.504 57.6029 138.046 59.0132 141.074C60.4235 144.102 60.9043 147.48 60.3947 150.781C59.8852 154.083 58.4082 157.158 56.1505 159.62C53.8928 162.082 50.9559 163.819 47.711 164.612C45.5563 165.139 43.3188 165.236 41.1264 164.898C38.934 164.56 36.8297 163.794 34.9338 162.642C33.0379 161.49 31.3876 159.976 30.0771 158.186C28.7666 156.397 27.8217 154.366 27.2964 152.211Z" fill="#EBEBEB"/>
<path d="M52.3213 150.312C49.772 155.458 43.6972 158.509 43.6972 158.509C43.6972 158.509 37.5952 155.458 35.0798 150.312C32.9576 146.021 34.3001 141.383 37.6562 140.366C42.4632 138.915 43.6972 147.289 43.6972 147.289C43.6972 147.289 44.9311 138.915 49.7449 140.366C53.101 141.383 54.4435 146.021 52.3213 150.312Z" fill="white"/>
<path d="M263.124 53.1484C260.453 54.7918 257.379 55.6618 254.242 55.6618C251.106 55.6618 248.032 54.7918 245.361 53.1484C242.236 51.2162 239.826 48.3175 238.497 44.892C237.168 41.4665 236.992 37.7011 237.997 34.1668C239.001 30.6325 241.131 27.5221 244.062 25.3074C246.994 23.0927 250.568 21.8945 254.242 21.8945C257.917 21.8945 261.491 23.0927 264.423 25.3074C267.354 27.5221 269.484 30.6325 270.488 34.1668C271.493 37.7011 271.317 41.4665 269.988 44.892C268.659 48.3175 266.249 51.2162 263.124 53.1484Z" fill="#EBEBEB"/>
<path d="M254.243 41.9884C257.081 41.9884 259.382 39.6875 259.382 36.8492C259.382 34.0109 257.081 31.71 254.243 31.71C251.404 31.71 249.104 34.0109 249.104 36.8492C249.104 39.6875 251.404 41.9884 254.243 41.9884Z" fill="white"/>
<path d="M263.125 51.0263V53.1485C260.454 54.7918 257.379 55.6618 254.243 55.6618C251.107 55.6618 248.032 54.7918 245.361 53.1485V51.0263C245.361 48.6707 246.297 46.4116 247.963 44.746C249.628 43.0803 251.888 42.1445 254.243 42.1445C256.599 42.1445 258.858 43.0803 260.524 44.746C262.189 46.4116 263.125 48.6707 263.125 51.0263Z" fill="white"/>
<path d="M42.0293 267.01L73.5563 266.847L105.09 266.786L168.144 266.671L231.198 266.786L262.732 266.847L294.259 267.01L262.732 267.173L231.198 267.234L168.144 267.349L105.09 267.234L73.5563 267.173L42.0293 267.01Z" fill="#263238"/>
<path d="M98.0723 306.069C140.692 306.069 175.242 301.094 175.242 294.957C175.242 288.82 140.692 283.844 98.0723 283.844C55.4525 283.844 20.9023 288.82 20.9023 294.957C20.9023 301.094 55.4525 306.069 98.0723 306.069Z" fill="#EBEBEB"/>
<path d="M245.285 306.069C287.905 306.069 322.455 301.094 322.455 294.957C322.455 288.82 287.905 283.844 245.285 283.844C202.665 283.844 168.115 288.82 168.115 294.957C168.115 301.094 202.665 306.069 245.285 306.069Z" fill="#EBEBEB"/>
<path d="M283.295 62.9795H55.8125V232.269H283.295V62.9795Z" fill="#37474F"/>
<path d="M271.81 73.99H67.3047V195.555H271.81V73.99Z" fill="white"/>
<path d="M283.295 207.298H55.8125V232.269H283.295V207.298Z" fill="#C7C7C7"/>
<path d="M218.072 262.786H121.043V270.895H218.072V262.786Z" fill="#37474F"/>
<path d="M206.511 262.793H132.596L134.474 248.717L134.562 248.053L134.738 246.738L134.826 246.073L135.003 244.751L135.03 244.548L135.091 244.087L135.274 242.765L135.355 242.107L136.67 232.276H202.436L203.67 241.544L203.738 241.992L203.942 243.531L203.996 243.978L204.077 244.548L204.206 245.517L204.26 245.958L204.464 247.504L204.532 247.944L206.511 262.793Z" fill="#C7C7C7"/>
<path d="M271.81 73.99H67.3047V80.5666H271.81V73.99Z" fill="#263238"/>
<path d="M72.5453 77.292C72.5453 77.6154 72.4493 77.9316 72.2695 78.2004C72.0896 78.4693 71.834 78.6787 71.535 78.8022C71.2361 78.9257 70.9072 78.9576 70.59 78.894C70.2729 78.8304 69.9818 78.6741 69.7535 78.4449C69.5253 78.2157 69.3702 77.924 69.3079 77.6066C69.2456 77.2891 69.279 76.9604 69.4037 76.6619C69.5284 76.3635 69.7389 76.1088 70.0085 75.93C70.2781 75.7513 70.5946 75.6566 70.9181 75.658C71.1324 75.658 71.3445 75.7003 71.5424 75.7825C71.7402 75.8647 71.9199 75.9851 72.0711 76.137C72.2223 76.2888 72.342 76.469 72.4234 76.6672C72.5048 76.8654 72.5462 77.0777 72.5453 77.292Z" fill="#C7C7C7"/>
<path d="M79.182 77.292C79.182 77.6154 79.086 77.9316 78.9062 78.2004C78.7263 78.4693 78.4707 78.6787 78.1718 78.8022C77.8728 78.9257 77.5439 78.9576 77.2268 78.894C76.9096 78.8304 76.6185 78.6741 76.3902 78.4449C76.162 78.2157 76.0069 77.924 75.9446 77.6066C75.8824 77.2891 75.9157 76.9604 76.0404 76.6619C76.1651 76.3635 76.3756 76.1088 76.6452 75.93C76.9148 75.7513 77.2314 75.6566 77.5548 75.658C77.7691 75.658 77.9812 75.7003 78.1791 75.7825C78.377 75.8647 78.5566 75.9851 78.7078 76.137C78.859 76.2888 78.9787 76.469 79.0601 76.6672C79.1415 76.8654 79.1829 77.0777 79.182 77.292Z" fill="white"/>
<path d="M85.8481 77.2919C85.8481 77.6151 85.7522 77.931 85.5727 78.1997C85.3931 78.4684 85.1379 78.6779 84.8394 78.8016C84.5408 78.9252 84.2123 78.9576 83.8953 78.8945C83.5783 78.8315 83.2872 78.6759 83.0587 78.4473C82.8301 78.2188 82.6745 77.9277 82.6115 77.6107C82.5484 77.2938 82.5808 76.9652 82.7045 76.6667C82.8281 76.3681 83.0376 76.1129 83.3063 75.9333C83.575 75.7538 83.8909 75.658 84.2141 75.658C84.6474 75.658 85.063 75.8301 85.3695 76.1365C85.6759 76.443 85.8481 76.8586 85.8481 77.2919Z" fill="#0D5FAA"/>
<path d="M173.602 218.106C173.6 218.922 173.357 219.719 172.902 220.396C172.448 221.074 171.802 221.601 171.048 221.911C170.293 222.222 169.464 222.301 168.664 222.14C167.864 221.978 167.13 221.583 166.555 221.004C165.98 220.425 165.59 219.689 165.434 218.888C165.277 218.087 165.362 217.258 165.678 216.506C165.993 215.753 166.525 215.111 167.205 214.661C167.885 214.211 168.684 213.973 169.5 213.977C170.591 213.982 171.635 214.42 172.404 215.194C173.173 215.968 173.604 217.015 173.602 218.106Z" fill="#37474F"/>
<path d="M204.077 244.548H135.029L135.09 244.087L135.273 242.765L135.355 242.107L136.67 232.276H202.436L203.67 241.544L203.738 241.992L203.941 243.531L203.995 243.978L204.077 244.548Z" fill="#A6A6A6"/>
<path d="M271.81 80.5603H67.3047V107.809H271.81V80.5603Z" fill="#0D5FAA"/>
<path d="M259.973 184.857H177.338V126.786H259.973V184.857ZM178.016 184.179H259.295V127.464H178.016V184.179Z" fill="#EBEBEB"/>
<path d="M177.17 126.273L176.783 126.829L258.826 183.859L259.213 183.303L177.17 126.273Z" fill="#EBEBEB"/>
<path d="M177.874 184.796L177.48 184.24C178.267 183.691 256.21 129.281 259.43 126.854L259.837 127.396C256.61 129.83 178.66 184.247 177.874 184.796Z" fill="#EBEBEB"/>
<path d="M208.356 80.5603H130.752V104.358H208.356V80.5603Z" fill="#263238"/>
<path d="M162.678 115.301H108.838V116.399H162.678V115.301Z" fill="#EBEBEB"/>
<path d="M150.447 118.067H108.838V119.165H150.447V118.067Z" fill="#EBEBEB"/>
<path d="M159.451 120.833H108.838V121.932H159.451V120.833Z" fill="#EBEBEB"/>
<path d="M163.878 123.599H108.838V124.698H163.878V123.599Z" fill="#EBEBEB"/>
<path d="M137.375 126.366H108.838V127.464H137.375V126.366Z" fill="#EBEBEB"/>
<path d="M162.847 129.139H108.838V130.237H162.847V129.139Z" fill="#EBEBEB"/>
<path d="M153.796 131.905H108.838V133.003H153.796V131.905Z" fill="#EBEBEB"/>
<path d="M165.349 134.671H108.838V135.77H165.349V134.671Z" fill="#EBEBEB"/>
<path d="M162.847 137.437H108.838V138.536H162.847V137.437Z" fill="#EBEBEB"/>
<path d="M165.349 140.204H108.838V141.302H165.349V140.204Z" fill="#EBEBEB"/>
<path d="M87.414 88.0112H79.4746V89.1096H87.414V88.0112Z" fill="white"/>
<path d="M87.414 90.7776H79.4746V91.8759H87.414V90.7776Z" fill="white"/>
<path d="M87.414 93.5437H79.4746V94.6421H87.414V93.5437Z" fill="white"/>
<path d="M259.632 115.301H177.676V121.382H259.632V115.301Z" fill="#0D5FAA"/>
<path d="M105.476 115.294H79.4746V141.302H105.476V115.294Z" fill="#A6A6A6"/>
<path d="M92.4778 128.298C95.0728 128.298 97.1764 126.194 97.1764 123.599C97.1764 121.004 95.0728 118.901 92.4778 118.901C89.8829 118.901 87.7793 121.004 87.7793 123.599C87.7793 126.194 89.8829 128.298 92.4778 128.298Z" fill="white"/>
<path d="M100.6 136.57V141.316H84.3281V136.57C84.3281 134.412 85.1853 132.342 86.7111 130.817C88.2369 129.291 90.3063 128.434 92.4641 128.434C94.6219 128.434 96.6914 129.291 98.2172 130.817C99.7429 132.342 100.6 134.412 100.6 136.57Z" fill="white"/>
<path d="M146.99 98.8866V94.1406C146.989 94.0822 147 94.0241 147.022 93.9699C147.044 93.9156 147.076 93.8662 147.117 93.8246C147.158 93.7829 147.207 93.7499 147.261 93.7273C147.315 93.7047 147.373 93.6931 147.431 93.6931H148.577C148.983 93.6931 149.373 93.8546 149.66 94.1419C149.948 94.4293 150.109 94.819 150.109 95.2254C150.11 95.5587 150 95.8829 149.797 96.1475C150.116 96.3447 150.362 96.6405 150.497 96.99C150.632 97.3395 150.65 97.7237 150.547 98.0841C150.444 98.4446 150.227 98.7616 149.928 98.9872C149.628 99.2128 149.264 99.3346 148.889 99.3341H147.431C147.373 99.3341 147.315 99.3224 147.261 99.2999C147.207 99.2773 147.158 99.2442 147.117 99.2026C147.076 99.1609 147.044 99.1116 147.022 99.0573C147 99.0031 146.989 98.945 146.99 98.8866ZM147.878 95.8695H148.556C148.729 95.8591 148.891 95.7831 149.01 95.6571C149.128 95.531 149.194 95.3645 149.194 95.1915C149.194 95.0225 149.127 94.8604 149.007 94.7408C148.888 94.6213 148.725 94.5542 148.556 94.5542H147.878V95.8695ZM147.878 98.4323H148.889C148.998 98.4323 149.106 98.4107 149.207 98.3687C149.308 98.3267 149.399 98.2652 149.476 98.1877C149.553 98.1101 149.614 98.0181 149.655 97.917C149.696 97.8159 149.717 97.7076 149.716 97.5984C149.716 97.3784 149.629 97.1673 149.474 97.0111C149.319 96.8549 149.109 96.7662 148.889 96.7644H147.878V98.4323Z" fill="white"/>
<path d="M151.778 98.8866V94.1406C151.777 94.0822 151.787 94.0241 151.809 93.9699C151.831 93.9156 151.863 93.8662 151.904 93.8246C151.945 93.7829 151.994 93.7499 152.048 93.7273C152.102 93.7047 152.16 93.6931 152.218 93.6931C152.337 93.6931 152.451 93.7403 152.535 93.8242C152.619 93.9081 152.666 94.0219 152.666 94.1406V98.4391H154.856C154.974 98.4426 155.086 98.4921 155.168 98.5769C155.25 98.6617 155.296 98.7752 155.296 98.8934C155.295 99.0097 155.248 99.1208 155.165 99.2031C155.083 99.2853 154.972 99.3323 154.856 99.3341H152.218C152.16 99.335 152.101 99.324 152.047 99.3018C151.993 99.2796 151.943 99.2465 151.902 99.2047C151.861 99.1629 151.829 99.1131 151.807 99.0584C151.786 99.0037 151.776 98.9453 151.778 98.8866Z" fill="white"/>
<path d="M160.435 94.3914C160.955 94.9405 161.246 95.6685 161.246 96.4254C161.246 97.1822 160.955 97.9102 160.435 98.4594C160.19 98.7277 159.893 98.9426 159.562 99.0908C159.23 99.2389 158.872 99.3171 158.509 99.3204C158.139 99.3192 157.773 99.2421 157.434 99.094C157.094 98.946 156.789 98.73 156.536 98.4594C156.024 97.9056 155.74 97.1794 155.74 96.4254C155.74 95.6714 156.024 94.9451 156.536 94.3914C156.787 94.1185 157.092 93.901 157.432 93.7527C157.772 93.6045 158.139 93.5287 158.509 93.5303C158.873 93.5303 159.232 93.607 159.564 93.7553C159.896 93.9037 160.192 94.1204 160.435 94.3914ZM160.333 96.4254C160.331 95.9034 160.136 95.4007 159.784 95.0151C159.621 94.8358 159.422 94.6926 159.2 94.5946C158.978 94.4966 158.738 94.446 158.496 94.446C158.253 94.446 158.013 94.4966 157.791 94.5946C157.57 94.6926 157.371 94.8358 157.207 95.0151C156.85 95.3971 156.653 95.9021 156.658 96.4254C156.655 96.9462 156.851 97.4486 157.207 97.8288C157.368 98.0119 157.567 98.1586 157.789 98.2591C158.011 98.3595 158.252 98.4115 158.496 98.4115C158.739 98.4115 158.98 98.3595 159.203 98.2591C159.425 98.1586 159.623 98.0119 159.784 97.8288C160.14 97.4486 160.336 96.9462 160.333 96.4254Z" fill="white"/>
<path d="M162.59 96.4389C162.593 96.0527 162.673 95.6711 162.824 95.3159C162.976 94.9606 163.195 94.6386 163.471 94.3685C163.747 94.0983 164.074 93.8852 164.432 93.7413C164.79 93.5975 165.173 93.5258 165.559 93.5302C166.224 93.5281 166.871 93.7476 167.397 94.154C167.451 94.1884 167.497 94.2338 167.533 94.2872C167.568 94.3406 167.592 94.4008 167.603 94.464C167.614 94.5271 167.612 94.5919 167.597 94.6542C167.581 94.7164 167.553 94.7747 167.513 94.8254C167.474 94.8761 167.425 94.918 167.368 94.9485C167.312 94.979 167.25 94.9973 167.186 95.0024C167.122 95.0075 167.057 94.9992 166.997 94.978C166.936 94.9568 166.881 94.9233 166.834 94.8795C166.468 94.5994 166.02 94.447 165.559 94.4455C165.291 94.4431 165.024 94.494 164.775 94.5952C164.526 94.6964 164.299 94.8461 164.109 95.0354C163.918 95.2142 163.767 95.43 163.663 95.6697C163.559 95.9093 163.506 96.1676 163.506 96.4287C163.506 96.6898 163.559 96.9481 163.663 97.1877C163.767 97.4273 163.918 97.6432 164.109 97.822C164.299 98.0113 164.526 98.1609 164.775 98.2622C165.024 98.3634 165.291 98.4143 165.559 98.4118C165.948 98.4072 166.329 98.3021 166.665 98.1067V97.0016H165.512C165.39 96.9998 165.274 96.9507 165.188 96.8646C165.102 96.7785 165.053 96.6623 165.051 96.5406C165.051 96.4806 165.063 96.4213 165.086 96.3661C165.11 96.3109 165.144 96.261 165.187 96.2192C165.23 96.1775 165.281 96.1448 165.337 96.1232C165.392 96.1015 165.452 96.0913 165.512 96.0931H167.119C167.179 96.0913 167.238 96.1015 167.294 96.1232C167.35 96.1448 167.401 96.1775 167.444 96.2192C167.487 96.261 167.521 96.3109 167.545 96.3661C167.568 96.4213 167.58 96.4806 167.58 96.5406V98.3101C167.584 98.3553 167.584 98.4006 167.58 98.4457V98.4864C167.549 98.5663 167.495 98.6349 167.424 98.683C166.9 99.0885 166.256 99.3079 165.593 99.3068C165.208 99.3167 164.824 99.2503 164.464 99.1113C164.104 98.9724 163.775 98.7637 163.495 98.4971C163.216 98.2306 162.993 97.9116 162.837 97.5584C162.682 97.2051 162.598 96.8247 162.59 96.4389Z" fill="white"/>
<path d="M173.702 97.1371H172.706V98.8863C172.706 99.005 172.658 99.1188 172.574 99.2028C172.491 99.2867 172.377 99.3338 172.258 99.3338C172.139 99.3338 172.026 99.2867 171.942 99.2028C171.858 99.1188 171.811 99.005 171.811 98.8863V94.1403C171.811 94.0216 171.858 93.9078 171.942 93.8239C172.026 93.74 172.139 93.6928 172.258 93.6928H173.702C173.938 93.6781 174.174 93.7117 174.396 93.7917C174.618 93.8718 174.822 93.9965 174.994 94.1582C175.166 94.3198 175.303 94.5151 175.397 94.7318C175.491 94.9485 175.539 95.1822 175.539 95.4184C175.539 95.6545 175.491 95.8882 175.397 96.1049C175.303 96.3216 175.166 96.5169 174.994 96.6785C174.822 96.8402 174.618 96.9649 174.396 97.045C174.174 97.125 173.938 97.1586 173.702 97.1439V97.1371ZM172.706 96.276H173.702C173.818 96.2865 173.934 96.2727 174.044 96.2358C174.153 96.1988 174.254 96.1393 174.34 96.0612C174.425 95.983 174.494 95.8879 174.54 95.7819C174.587 95.6759 174.611 95.5613 174.611 95.4455C174.611 95.3296 174.587 95.215 174.54 95.109C174.494 95.003 174.425 94.9079 174.34 94.8298C174.254 94.7517 174.153 94.6922 174.044 94.6552C173.934 94.6182 173.818 94.6045 173.702 94.6149H172.706V96.276Z" fill="white"/>
<path d="M180.958 94.3916C181.479 94.9408 181.769 95.6688 181.769 96.4256C181.769 97.1824 181.479 97.9104 180.958 98.4596C180.714 98.7279 180.417 98.9428 180.085 99.091C179.754 99.2392 179.396 99.3173 179.033 99.3206C178.662 99.3194 178.296 99.2423 177.957 99.0943C177.618 98.9462 177.312 98.7302 177.06 98.4596C176.548 97.9059 176.264 97.1796 176.264 96.4256C176.264 95.6716 176.548 94.9453 177.06 94.3916C177.312 94.121 177.618 93.905 177.957 93.7569C178.296 93.6088 178.662 93.5318 179.033 93.5305C179.396 93.5305 179.755 93.6072 180.087 93.7556C180.419 93.9039 180.716 94.1207 180.958 94.3916ZM180.856 96.4256C180.855 95.9036 180.659 95.4009 180.307 95.0153C180.144 94.8361 179.945 94.6928 179.723 94.5948C179.501 94.4968 179.262 94.4462 179.019 94.4462C178.777 94.4462 178.537 94.4968 178.315 94.5948C178.093 94.6928 177.894 94.8361 177.731 95.0153C177.373 95.3973 177.177 95.9024 177.182 96.4256C177.178 96.9465 177.375 97.4488 177.731 97.829C177.892 98.0121 178.09 98.1588 178.312 98.2593C178.534 98.3597 178.775 98.4117 179.019 98.4117C179.263 98.4117 179.504 98.3597 179.726 98.2593C179.948 98.1588 180.146 98.0121 180.307 97.829C180.663 97.4488 180.86 96.9465 180.856 96.4256Z" fill="white"/>
<path d="M183.142 97.9305C183.212 97.8444 183.314 97.7897 183.424 97.7782C183.535 97.7668 183.645 97.7996 183.732 97.8695C184.164 98.2381 184.704 98.4569 185.271 98.4932C185.63 98.4999 185.983 98.3958 186.281 98.1949C186.381 98.1323 186.464 98.0468 186.525 97.9453C186.585 97.8439 186.62 97.7295 186.627 97.6118C186.627 97.5205 186.601 97.4311 186.552 97.3542C186.492 97.2566 186.411 97.1733 186.315 97.1101C185.971 96.9229 185.597 96.7967 185.21 96.7372C184.852 96.676 184.503 96.5689 184.172 96.4185C183.868 96.2848 183.608 96.0687 183.42 95.7948C183.298 95.5898 183.235 95.3553 183.237 95.1168C183.244 94.8844 183.307 94.657 183.418 94.4532C183.53 94.2494 183.689 94.0749 183.881 93.9438C184.29 93.6577 184.779 93.5082 185.278 93.5167C185.919 93.5569 186.532 93.7936 187.034 94.1947C187.124 94.2554 187.186 94.3492 187.208 94.4558C187.23 94.5624 187.208 94.6732 187.149 94.7642C187.12 94.8111 187.082 94.8516 187.037 94.8833C186.992 94.9151 186.941 94.9373 186.887 94.9487C186.833 94.9601 186.777 94.9605 186.723 94.9497C186.669 94.939 186.618 94.9174 186.572 94.8863C186.205 94.5846 185.752 94.4046 185.278 94.371C184.956 94.3636 184.64 94.4585 184.376 94.6422C184.29 94.6983 184.218 94.7732 184.165 94.8613C184.112 94.9494 184.08 95.0483 184.071 95.1507C184.065 95.2291 184.084 95.3072 184.125 95.3744C184.182 95.4591 184.255 95.5307 184.342 95.5846C184.651 95.7704 184.995 95.8926 185.352 95.9439C185.736 96.0069 186.11 96.1209 186.464 96.2829C186.793 96.426 187.073 96.6615 187.271 96.9609C187.395 97.1652 187.461 97.3998 187.461 97.6389C187.456 97.886 187.392 98.1284 187.274 98.3455C187.156 98.5627 186.988 98.7482 186.783 98.8865C186.347 99.1953 185.825 99.3568 185.291 99.3475C184.544 99.3063 183.83 99.0231 183.257 98.5407C183.208 98.5093 183.166 98.4682 183.134 98.42C183.101 98.3719 183.079 98.3175 183.068 98.2604C183.057 98.2033 183.058 98.1445 183.071 98.0878C183.084 98.0311 183.108 97.9775 183.142 97.9305Z" fill="white"/>
<path d="M192.024 94.5811H190.742V98.8864C190.742 99.0032 190.696 99.1153 190.613 99.198C190.531 99.2806 190.418 99.327 190.302 99.327C190.185 99.327 190.073 99.2806 189.99 99.198C189.907 99.1153 189.861 99.0032 189.861 98.8864V94.5811H188.586C188.468 94.5793 188.355 94.5316 188.272 94.4481C188.188 94.3645 188.14 94.2517 188.139 94.1336C188.138 94.0746 188.149 94.016 188.171 93.9613C188.193 93.9066 188.226 93.8569 188.268 93.8151C188.309 93.7734 188.359 93.7405 188.414 93.7183C188.469 93.6961 188.527 93.6852 188.586 93.6861H192.024C192.142 93.6861 192.256 93.7332 192.34 93.8172C192.424 93.9011 192.471 94.0149 192.471 94.1336C192.469 94.2517 192.422 94.3645 192.338 94.4481C192.255 94.5316 192.142 94.5793 192.024 94.5811Z" fill="white"/>
<path d="M200.504 101.016H138.596V101.836H200.504V101.016Z" fill="white"/>
<path d="M119.253 145.079H79.4746V184.857H119.253V145.079Z" fill="#EBEBEB"/>
<path d="M79.4746 172.924H119.246V145.072H79.4746V172.924Z" fill="#EBEBEB"/>
<path d="M84.125 152.991C84.125 153.642 84.3183 154.279 84.6803 154.821C85.0424 155.363 85.557 155.786 86.1591 156.035C86.7612 156.284 87.4237 156.35 88.0629 156.222C88.7021 156.095 89.2892 155.781 89.7501 155.321C90.2109 154.86 90.5247 154.273 90.6518 153.633C90.779 152.994 90.7137 152.332 90.4643 151.73C90.2149 151.128 89.7926 150.613 89.2507 150.251C88.7089 149.889 88.0718 149.696 87.4201 149.696C86.9871 149.695 86.5582 149.779 86.1581 149.945C85.7579 150.11 85.3943 150.353 85.0881 150.659C84.782 150.965 84.5393 151.328 84.374 151.729C84.2087 152.129 84.1241 152.558 84.125 152.991Z" fill="#DBDBDB"/>
<path d="M97.1367 166.869H119.253L108.195 151.879L97.1367 166.869Z" fill="#C7C7C7"/>
<path d="M88.4648 166.937H106.723L97.5975 157.181L88.4648 166.937Z" fill="#DBDBDB"/>
<path d="M119.246 166.924H79.4746V172.924H119.246V166.924Z" fill="#DBDBDB"/>
<path d="M116.433 175.69H82.3027V176.789H116.433V175.69Z" fill="white"/>
<path d="M105.951 178.456H82.3027V179.555H105.951V178.456Z" fill="white"/>
<path d="M111.063 181.222H82.3027V182.321H111.063V181.222Z" fill="white"/>
<path d="M165.351 145.079H125.572V184.857H165.351V145.079Z" fill="#EBEBEB"/>
<path d="M125.572 172.924H165.344V145.072H125.572V172.924Z" fill="#DBDBDB"/>
<path d="M145.457 166.937C149.636 166.937 153.024 163.55 153.024 159.371C153.024 155.192 149.636 151.804 145.457 151.804C141.278 151.804 137.891 155.192 137.891 159.371C137.891 163.55 141.278 166.937 145.457 166.937Z" fill="#EBEBEB"/>
<path d="M141.836 155.262V163.479L150.535 159.371L141.836 155.262Z" fill="white"/>
<path d="M162.529 175.69H128.398V176.789H162.529V175.69Z" fill="white"/>
<path d="M152.047 178.456H128.398V179.555H152.047V178.456Z" fill="white"/>
<path d="M157.159 181.222H128.398V182.321H157.159V181.222Z" fill="white"/>
<path d="M259.666 88.0112H218.857V94.6421H259.666V88.0112Z" fill="white"/>
<path d="M259.666 88.0112H253.035V94.6421H259.666V88.0112Z" fill="#263238"/>
<path d="M256.568 90.6904L255.957 91.1531L257.836 93.6335L258.447 93.1709L256.568 90.6904Z" fill="white"/>
<path d="M257.246 89.6588C257.445 89.9211 257.562 90.2365 257.583 90.5652C257.603 90.894 257.525 91.2214 257.36 91.5062C257.194 91.791 256.948 92.0204 256.652 92.1655C256.357 92.3106 256.025 92.3648 255.698 92.3214C255.372 92.278 255.065 92.1389 254.818 91.9216C254.57 91.7043 254.392 91.4185 254.307 91.1004C254.222 90.7822 254.232 90.4459 254.338 90.1339C254.443 89.8218 254.639 89.548 254.9 89.3469C255.252 89.0775 255.697 88.9591 256.137 89.0175C256.577 89.076 256.976 89.3067 257.246 89.6588Z" fill="white"/>
<path d="M256.717 90.0658C256.839 90.223 256.911 90.4127 256.924 90.6109C256.938 90.8091 256.893 91.0069 256.794 91.1793C256.695 91.3516 256.547 91.4907 256.369 91.5789C256.191 91.6671 255.991 91.7004 255.794 91.6747C255.597 91.649 255.412 91.5654 255.262 91.4345C255.113 91.3036 255.005 91.1312 254.954 90.9393C254.903 90.7474 254.909 90.5445 254.973 90.3564C255.037 90.1683 255.156 90.0035 255.314 89.8828C255.524 89.7216 255.79 89.6504 256.053 89.6847C256.316 89.719 256.555 89.856 256.717 90.0658Z" fill="#263238"/>
<path d="M147.689 295.865C146.401 296.293 109.721 296.184 108.297 295.303C107.768 294.97 107.47 289.614 107.3 283.146C107.26 281.749 107.233 280.312 107.205 278.841C107.205 277.105 107.158 275.349 107.144 273.641C107.104 265.972 107.205 259.219 107.205 259.219H131.105V273.641V278.841L130.983 283.146C130.983 283.146 145.017 289.479 146.441 290.604C147.865 291.73 148.97 295.445 147.689 295.865Z" fill="#F7A9A0"/>
<path d="M147.691 295.866C146.403 296.293 109.723 296.184 108.299 295.303C107.77 294.971 107.472 289.615 107.302 283.146C107.262 281.75 107.235 280.312 107.208 278.841C107.208 277.105 107.16 275.349 107.146 273.641H131.093V278.841L130.971 283.146C130.971 283.146 145.006 289.479 146.43 290.604C147.854 291.73 148.972 295.445 147.691 295.866Z" fill="white"/>
<path d="M147.804 295.92C146.97 296.198 131.335 296.252 119.952 296.015C117.314 295.961 114.907 295.886 112.962 295.805C110.283 295.683 108.487 295.533 108.216 295.35C107.571 294.937 107.26 287.085 107.117 278.8H131.125L131.003 283.126C131.003 283.126 145.092 289.506 146.529 290.638C147.967 291.77 149.085 295.493 147.804 295.92Z" fill="#0D5FAA"/>
<path d="M147.275 294.442C141.085 294.272 116.087 294.17 109.985 294.476C109.937 294.476 109.937 294.51 109.985 294.516C116.087 294.815 141.085 294.713 147.275 294.516C147.404 294.543 147.404 294.449 147.275 294.442Z" fill="#263238"/>
<path d="M131.858 281.756C129.424 281.295 126.434 281.662 124.576 283.39C124.508 283.458 124.576 283.56 124.684 283.533C127.011 282.784 129.411 282.286 131.844 282.048C131.874 282.038 131.901 282.019 131.92 281.994C131.939 281.969 131.95 281.939 131.952 281.907C131.953 281.875 131.945 281.844 131.928 281.817C131.911 281.79 131.887 281.769 131.858 281.756Z" fill="#263238"/>
<path d="M133.615 282.821C131.181 282.36 128.191 282.726 126.333 284.455C126.258 284.522 126.333 284.624 126.435 284.597C128.765 283.856 131.167 283.365 133.601 283.133C133.622 283.133 133.642 283.13 133.661 283.123C133.681 283.116 133.698 283.105 133.713 283.092C133.728 283.078 133.741 283.061 133.749 283.043C133.758 283.024 133.763 283.004 133.764 282.983C133.765 282.963 133.762 282.942 133.755 282.923C133.748 282.904 133.737 282.886 133.723 282.871C133.709 282.856 133.692 282.844 133.674 282.835C133.655 282.826 133.635 282.822 133.615 282.821Z" fill="#263238"/>
<path d="M135.364 283.885C132.93 283.424 129.94 283.79 128.089 285.519C128.014 285.587 128.089 285.689 128.191 285.661C130.521 284.92 132.923 284.429 135.357 284.197C135.398 284.198 135.438 284.182 135.468 284.154C135.498 284.125 135.515 284.086 135.516 284.044C135.517 284.003 135.502 283.963 135.473 283.933C135.444 283.903 135.405 283.886 135.364 283.885Z" fill="#263238"/>
<path d="M137.12 284.95C134.686 284.489 131.696 284.855 129.845 286.584C129.77 286.652 129.845 286.753 129.946 286.726C132.275 285.985 134.674 285.492 137.106 285.255C137.141 285.249 137.174 285.231 137.198 285.205C137.222 285.178 137.235 285.144 137.237 285.108C137.239 285.072 137.228 285.037 137.206 285.008C137.185 284.979 137.154 284.959 137.12 284.95Z" fill="#263238"/>
<path d="M136.368 276.143C135.419 274.787 133.656 275.411 132.619 276.258C130.894 277.75 129.594 279.67 128.849 281.824C128.846 281.834 128.845 281.845 128.846 281.855C128.848 281.865 128.852 281.875 128.858 281.883C128.864 281.892 128.871 281.899 128.88 281.904C128.889 281.909 128.9 281.912 128.91 281.913C128.908 281.96 128.918 282.007 128.938 282.05C128.957 282.092 128.987 282.13 129.024 282.16C129.061 282.189 129.104 282.21 129.15 282.22C129.196 282.23 129.244 282.229 129.29 282.218C131.324 281.479 133.541 280.936 135.27 279.607C136.28 278.828 137.27 277.39 136.368 276.143ZM132.11 280.475C131.127 280.862 130.137 281.201 129.168 281.621C129.87 280.517 130.629 279.449 131.439 278.421C131.84 277.94 132.272 277.487 132.734 277.065C133.459 276.387 136.334 275.031 135.893 277.682C135.656 279.119 133.276 280.014 132.11 280.475Z" fill="#263238"/>
<path d="M122.663 281.173C124.697 282.035 126.975 281.994 129.104 282.211C129.152 282.211 129.199 282.199 129.241 282.178C129.284 282.157 129.321 282.126 129.349 282.087C129.377 282.049 129.396 282.005 129.404 281.958C129.413 281.911 129.41 281.863 129.396 281.818C129.406 281.814 129.414 281.809 129.422 281.801C129.429 281.794 129.434 281.785 129.438 281.775C129.441 281.765 129.442 281.755 129.441 281.745C129.439 281.734 129.436 281.724 129.43 281.716C128.171 279.818 126.437 278.284 124.399 277.268C123.199 276.699 121.321 276.59 120.731 278.089C120.141 279.587 121.49 280.692 122.663 281.173ZM121.565 279.431C120.48 276.956 123.599 277.587 124.474 278.041C125.04 278.346 125.586 278.688 126.108 279.065C127.179 279.831 128.142 280.74 129.104 281.601C128.067 281.431 127.016 281.357 125.972 281.228C124.691 281.072 122.168 280.801 121.565 279.431Z" fill="#263238"/>
<path d="M99.2402 157.391C99.2402 157.391 105.695 221.265 105.851 222.072C105.851 222.181 105.919 223.428 105.98 225.415C106.325 236.412 107.186 270.698 107.186 270.698H133.567C133.567 270.698 131.852 230.086 130.855 220.615C129.594 208.533 121.668 157.391 121.668 157.391H99.2402Z" fill="#455A64"/>
<path d="M108.989 224.329C108.175 210.485 106.953 196.676 105.321 182.904C104.399 175.141 103.287 167.411 102.182 159.675C102.182 159.608 102.06 159.608 102.073 159.675C104.107 173.446 105.558 187.324 106.819 201.183C108.08 215.041 108.935 228.899 109.497 242.791C109.823 250.663 110.06 258.535 110.318 266.406C110.325 266.439 110.343 266.469 110.37 266.491C110.396 266.512 110.43 266.524 110.464 266.524C110.498 266.524 110.531 266.512 110.557 266.491C110.584 266.469 110.602 266.439 110.609 266.406C110.216 252.372 109.836 238.337 108.989 224.329Z" fill="#263238"/>
<path d="M131.872 266.454C131.16 266.387 130.445 266.358 129.73 266.366C128.943 266.366 128.15 266.332 127.357 266.298C125.834 266.244 124.308 266.205 122.78 266.183C119.702 266.128 116.617 266.149 113.546 266.244L111.01 266.332C110.109 266.366 109.2 266.447 108.298 266.447C108.231 266.447 108.237 266.528 108.298 266.528C109.844 266.528 111.41 266.657 112.963 266.718C114.516 266.779 116.014 266.8 117.539 266.82C120.611 266.861 123.703 266.82 126.774 266.725C127.615 266.725 128.462 266.678 129.31 266.65L130.666 266.596C131.066 266.603 131.467 266.589 131.866 266.556C131.874 266.559 131.882 266.561 131.891 266.56C131.9 266.56 131.908 266.557 131.916 266.552C131.923 266.548 131.929 266.542 131.934 266.534C131.938 266.527 131.941 266.518 131.942 266.51C131.942 266.501 131.941 266.492 131.937 266.484C131.934 266.476 131.928 266.469 131.922 266.464C131.915 266.458 131.907 266.454 131.898 266.453C131.89 266.451 131.881 266.451 131.872 266.454Z" fill="#263238"/>
<path d="M99.2402 157.391C99.2402 157.391 105.695 221.266 105.851 222.072C105.851 222.181 105.919 223.428 105.98 225.415L118.401 157.391H99.2402Z" fill="#263238"/>
<path d="M54.8027 278.658C53.6366 277.98 29.7167 250.107 29.4998 248.467C29.4048 247.843 33.2627 244.127 38.0493 239.775C39.0799 238.825 40.0833 237.808 41.2495 236.886C42.6733 235.727 44.1174 234.574 45.5209 233.496C51.6229 228.75 56.9045 225.008 56.9045 225.008L72.0714 242.588L61.2776 251.368L56.8503 254.975L53.5077 257.687C53.5077 257.687 57.8876 272.447 57.9554 274.271C58.0232 276.095 55.9621 279.336 54.8027 278.658Z" fill="#F7A9A0"/>
<path d="M54.8027 278.658C53.6366 277.98 29.7167 250.108 29.4998 248.467C29.4048 247.843 33.2627 244.128 38.0493 239.775C39.0799 238.826 40.0833 237.809 41.2495 236.887C42.6733 235.727 44.1174 234.575 45.5209 233.497C50.2194 238.921 57.0469 246.589 61.2776 251.369L56.8503 254.976L53.5077 257.688C53.5077 257.688 57.8876 272.448 57.9554 274.272C58.0232 276.095 55.9621 279.336 54.8027 278.658Z" fill="white"/>
<path d="M54.8375 278.786C53.6713 278.108 29.6362 250.073 29.3921 248.426C29.2837 247.659 35.0263 242.324 41.2097 236.778L56.8918 254.928L53.5018 257.64C53.5018 257.64 57.902 272.481 57.9766 274.318C58.0512 276.156 56.0036 279.485 54.8375 278.786Z" fill="#0D5FAA"/>
<path d="M55.5966 277.424C51.6846 272.624 35.4465 253.653 31.1886 249.212C31.1547 249.178 31.1276 249.212 31.1886 249.212C34.9583 254.046 51.3524 272.888 55.5221 277.458C55.5966 277.587 55.6916 277.519 55.5966 277.424Z" fill="#263238"/>
<path d="M55.1431 257.464C53.9092 255.315 51.6853 253.301 49.1564 253.016C49.0547 253.016 49.0411 253.145 49.1157 253.192C51.2039 254.463 53.1497 255.954 54.9194 257.64C54.946 257.654 54.9762 257.66 55.0062 257.657C55.0362 257.655 55.0648 257.643 55.0884 257.625C55.1121 257.606 55.1299 257.581 55.1396 257.552C55.1493 257.524 55.1505 257.493 55.1431 257.464Z" fill="#263238"/>
<path d="M55.4887 259.484C54.2479 257.342 52.0241 255.321 49.4952 255.043C49.4002 255.043 49.3867 255.172 49.4545 255.213C51.5385 256.488 53.4797 257.984 55.2446 259.674C55.2715 259.701 55.3072 259.716 55.345 259.719C55.3827 259.721 55.42 259.709 55.4499 259.686C55.4798 259.663 55.5002 259.63 55.5073 259.592C55.5144 259.555 55.5078 259.517 55.4887 259.484Z" fill="#263238"/>
<path d="M55.8285 261.511C54.5878 259.362 52.3639 257.348 49.835 257.063C49.7401 257.063 49.7265 257.192 49.7943 257.24C51.8848 258.515 53.8307 260.013 55.598 261.708C55.6263 261.728 55.6607 261.739 55.6956 261.737C55.7305 261.736 55.7639 261.723 55.7905 261.7C55.817 261.677 55.8352 261.646 55.8421 261.612C55.849 261.578 55.8442 261.542 55.8285 261.511Z" fill="#263238"/>
<path d="M56.1664 263.532C54.9257 261.389 52.7018 259.369 50.1729 259.091C50.078 259.091 50.0644 259.22 50.1322 259.261C52.2192 260.543 54.1626 262.045 55.9291 263.742C55.9429 263.758 55.9596 263.77 55.9784 263.78C55.9971 263.789 56.0174 263.794 56.0382 263.795C56.0589 263.797 56.0798 263.794 56.0994 263.787C56.1191 263.78 56.1373 263.769 56.1528 263.756C56.1684 263.742 56.1811 263.725 56.1903 263.706C56.1994 263.688 56.2047 263.667 56.206 263.647C56.2072 263.626 56.2044 263.605 56.1976 263.585C56.1908 263.566 56.1802 263.548 56.1664 263.532Z" fill="#263238"/>
<path d="M62.376 257.206C62.7489 255.626 61.1421 254.657 59.8335 254.44C57.577 254.114 55.2744 254.385 53.1552 255.226C53.148 255.233 53.1422 255.241 53.1383 255.249C53.1343 255.258 53.1323 255.268 53.1323 255.277C53.1323 255.287 53.1343 255.296 53.1383 255.305C53.1422 255.314 53.148 255.322 53.1552 255.328C53.1174 255.357 53.0866 255.393 53.0654 255.436C53.0442 255.478 53.0332 255.525 53.0332 255.572C53.0332 255.62 53.0442 255.666 53.0654 255.709C53.0866 255.751 53.1174 255.788 53.1552 255.816C55.0333 256.86 56.9046 258.203 59.0471 258.637C60.2539 258.894 61.9896 258.705 62.376 257.206ZM56.274 256.813C55.3384 256.325 54.4367 255.789 53.4875 255.335C54.7892 255.186 56.0774 254.982 57.3927 254.962C58.0265 254.943 58.6608 254.968 59.2911 255.037C60.2607 255.159 63.1964 256.393 60.8844 257.83C59.6234 258.61 57.3927 257.396 56.274 256.813Z" fill="#263238"/>
<path d="M49.5836 250.114C50.2616 252.195 51.7735 253.917 53.0075 255.673C53.0385 255.71 53.0774 255.738 53.1213 255.756C53.1651 255.774 53.2127 255.782 53.2601 255.779C53.3075 255.776 53.3535 255.761 53.3944 255.737C53.4353 255.713 53.47 255.68 53.4957 255.64C53.5091 255.642 53.5231 255.641 53.5355 255.634C53.5478 255.628 53.5576 255.618 53.5635 255.606C54.18 253.412 54.2081 251.095 53.6448 248.887C53.2923 247.605 52.16 246.107 50.6277 246.649C49.0954 247.192 49.1971 248.9 49.5836 250.114ZM50.1735 248.148C51.3328 245.7 52.8855 248.487 53.1228 249.443C53.2539 250.062 53.3445 250.689 53.394 251.321C53.4753 252.628 53.4889 253.938 53.4346 255.246C52.8787 254.345 52.2549 253.504 51.6718 252.622C50.9871 251.585 49.5429 249.504 50.1735 248.148Z" fill="#263238"/>
<path d="M121.633 157.391C121.633 157.391 120.013 167.052 113.802 172.035C113.802 172.035 99.2319 216.221 95.964 220.953C90.54 228.791 63.5691 249.558 63.5691 249.558L46.1445 229.354C46.1445 229.354 72.3018 210.77 74.3493 207.942C75.7053 206.064 85.916 177.649 85.7329 176.666C83.6176 164.95 88.906 157.364 88.906 157.364L121.633 157.391Z" fill="#455A64"/>
<path d="M90.9674 159.113C89.8137 161.444 88.99 163.925 88.5199 166.483C88.2967 167.775 88.1811 169.084 88.1741 170.395C88.1741 171.805 88.3232 173.209 88.3707 174.612C88.4302 176.049 88.2841 177.488 87.9368 178.883C87.6046 180.239 87.1842 181.595 86.7842 182.911C85.957 185.623 85.0802 188.335 84.1536 191.047C82.3094 196.43 80.2754 201.739 78.0515 206.973C77.5916 208.201 76.9343 209.346 76.1057 210.363C75.1406 211.333 74.0824 212.205 72.9462 212.966L65.9086 218.241L51.7519 228.866V228.899C51.596 229.015 51.7519 229.279 51.9146 229.164C56.6606 225.618 59.6506 223.36 64.3966 219.814L71.5766 214.451C72.7089 213.604 73.8615 212.777 74.9666 211.902C75.9428 211.165 76.7651 210.243 77.3871 209.19C78.0058 208.03 78.5515 206.832 79.0211 205.603C79.5771 204.247 80.1262 202.939 80.6551 201.603C81.6992 198.986 82.6936 196.351 83.6383 193.698C84.583 191.044 85.4869 188.332 86.3503 185.562C86.7774 184.206 87.1978 182.809 87.6046 181.433C88.0288 180.117 88.3641 178.773 88.608 177.412C89.0284 174.626 88.4114 171.812 88.547 169.012C88.6628 166.302 89.2121 163.628 90.1742 161.093C90.43 160.434 90.7197 159.789 91.042 159.16C91.0895 159.099 90.9946 159.045 90.9674 159.113Z" fill="#263238"/>
<path d="M100.053 159.445C99.5944 161.313 98.5372 162.98 97.0427 164.191C95.3852 165.491 93.3851 166.28 91.2865 166.463C90.9339 166.51 90.9272 167.046 91.2865 167.032C95.5782 166.863 99.7886 163.92 100.216 159.438C100.236 159.33 100.073 159.33 100.053 159.445Z" fill="#263238"/>
<path d="M117.783 168.923C116.256 169.621 114.806 170.478 113.458 171.479C112.027 172.463 110.712 173.588 109.335 174.639C109.326 174.648 109.32 174.66 109.319 174.673C109.317 174.686 109.321 174.698 109.328 174.709C109.335 174.72 109.346 174.727 109.359 174.731C109.371 174.734 109.385 174.733 109.396 174.727C110.847 173.805 112.366 172.991 113.803 172.015C115.245 171.138 116.606 170.135 117.871 169.018C117.875 169.006 117.876 168.992 117.873 168.98C117.87 168.967 117.864 168.955 117.855 168.945C117.846 168.936 117.834 168.928 117.822 168.925C117.809 168.921 117.796 168.92 117.783 168.923Z" fill="#263238"/>
<path d="M117.972 159.954C117.789 160.944 117.545 161.927 117.335 162.917C117.124 163.906 116.982 164.788 116.738 165.703C116.537 166.59 116.088 167.401 115.443 168.042C115.077 168.381 114.677 168.68 114.29 168.985C114.08 169.154 113.857 169.317 113.612 169.486C113.612 169.351 113.66 169.222 113.687 169.086C113.748 168.707 113.816 168.327 113.877 167.954C114.019 167.113 114.155 166.279 114.277 165.439C114.535 163.791 114.765 162.123 115.111 160.489C115.111 160.428 115.023 160.401 115.002 160.489C114.596 162.103 114.141 163.703 113.782 165.337C113.606 166.137 112.982 170.083 112.955 170.368C112.928 170.653 112.901 170.944 112.894 171.236C112.853 171.528 112.853 171.825 112.894 172.117C112.894 172.192 112.995 172.178 113.023 172.117C113.141 171.844 113.225 171.557 113.273 171.263C113.348 170.978 113.409 170.693 113.463 170.408C113.463 170.307 113.463 170.198 113.511 170.09C113.897 169.859 114.257 169.541 114.623 169.283C114.989 169.025 115.416 168.72 115.782 168.408C116.47 167.831 116.967 167.057 117.206 166.191C117.444 165.26 117.598 164.309 117.667 163.35C117.796 162.232 117.884 161.099 118.04 159.96C118.031 159.952 118.019 159.946 118.007 159.945C117.995 159.944 117.982 159.947 117.972 159.954Z" fill="#263238"/>
<path d="M66.0241 245.646C65.6376 245.063 65.1291 244.521 64.6681 243.971C64.2071 243.422 63.6511 242.758 63.1562 242.141C62.2002 240.948 61.2306 239.775 60.2475 238.602C58.3085 236.249 56.2745 233.91 54.1659 231.673C53.5896 231.049 53.0133 230.432 52.4302 229.815C51.8471 229.198 51.1623 228.527 50.5725 227.842C50.5318 227.794 50.4708 227.842 50.5115 227.903C51.5352 229.062 52.4573 230.344 53.4269 231.544C54.3964 232.744 55.3659 233.903 56.3558 235.069C58.3356 237.422 60.3831 239.734 62.4578 241.978C63.0409 242.595 63.6036 243.226 64.1799 243.849C64.485 244.182 64.7969 244.527 65.1088 244.833C65.4207 245.138 65.6241 245.45 65.9292 245.721C65.9391 245.733 65.9536 245.741 65.9694 245.743C65.9853 245.745 66.0013 245.741 66.0139 245.731C66.0265 245.721 66.0347 245.706 66.0366 245.691C66.0385 245.675 66.034 245.659 66.0241 245.646Z" fill="#263238"/>
<path d="M113.667 142.807C111.975 143.581 110.201 144.161 108.378 144.536C111.897 140.943 113.857 131.349 113.219 132.63C110.175 138.732 104.358 144.834 102.724 144.834C98.7574 144.324 95.0656 142.534 92.2081 139.736C96.588 135.769 98.8321 126.081 98.466 126.616C94.5607 132.332 88.7842 134.813 87.9435 134.596C85.5569 130.84 84.6348 127.45 85.1501 127.254C88.9333 125.85 93.0963 120.847 97.0626 115.45C100.981 110.134 103.605 104.812 108.372 100.378C112.724 96.3098 119.281 96.9539 122.257 100.31C130.047 109.09 116.06 141.702 113.667 142.807Z" fill="#263238"/>
<path d="M114.161 98.5808C111.402 98.5808 108.669 100.418 106.764 102.289C104.228 104.785 102.215 107.815 99.9502 110.548C95.5495 115.961 90.3318 120.654 84.485 124.46C84.4581 124.475 84.4383 124.501 84.43 124.531C84.4217 124.56 84.4257 124.592 84.441 124.619C84.4563 124.646 84.4816 124.666 84.5115 124.674C84.5414 124.683 84.5733 124.679 84.6003 124.663C90.5938 122.094 95.4076 117.477 99.6316 112.554C101.788 110.032 103.7 107.307 105.734 104.737C106.845 103.303 108.148 102.028 109.605 100.947C110.992 100.017 112.554 99.3786 114.195 99.069C114.249 99.0526 114.297 99.0182 114.329 98.9714C114.362 98.9245 114.377 98.8681 114.373 98.8113C114.369 98.7546 114.346 98.7008 114.307 98.6589C114.269 98.6171 114.217 98.5895 114.161 98.5808Z" fill="#263238"/>
<path d="M114.121 127.389C115.965 131.206 128.766 143.424 139.295 147.214C143.16 148.604 159.825 144.604 163.771 142.936C168.388 140.976 165.317 129.457 162.368 129.471C158.679 129.471 142.875 133.274 139.499 133.193C135.39 133.091 125.857 126.813 117.755 123.66C113.579 122.04 112.697 124.44 114.121 127.389Z" fill="#F7A9A0"/>
<path d="M163.771 142.936C165.256 142.394 171.846 139.302 173.487 138.034C175.127 136.766 179.589 132.773 178.748 131.417C177.907 130.061 176.504 131.125 176.504 131.125C176.504 131.125 178.117 129.139 177.141 127.85C176.165 126.562 174.049 128.291 174.049 128.291C174.049 128.291 175.555 126.135 174.497 124.901C173.439 123.667 171.588 125.776 171.588 125.776C171.588 125.776 173.06 123.871 171.765 123.24C170.205 122.474 167.886 126.305 165.968 127.572C165.534 127.857 156.727 132.766 156.727 132.766L163.771 142.936Z" fill="#F7A9A0"/>
<path d="M171.751 125.62C170.036 128.433 168.802 129.369 165.9 130.806C165.846 130.806 165.9 130.928 165.934 130.901C168.904 129.749 170.626 128.806 171.887 125.701C171.955 125.545 171.832 125.491 171.751 125.62Z" fill="#263238"/>
<path d="M174.178 128.067C172.144 130.833 170.788 131.857 167.886 133.586C167.845 133.586 167.886 133.688 167.927 133.667C170.937 132.203 172.632 131.22 174.3 128.189C174.374 128.054 174.246 127.938 174.178 128.067Z" fill="#263238"/>
<path d="M176.349 131.206C174.187 133.742 172.776 134.929 169.719 136.244C169.711 136.247 169.704 136.251 169.698 136.256C169.692 136.261 169.687 136.268 169.684 136.275C169.68 136.282 169.678 136.29 169.678 136.298C169.677 136.306 169.679 136.314 169.681 136.322C169.684 136.329 169.688 136.336 169.693 136.342C169.699 136.348 169.705 136.353 169.712 136.357C169.72 136.36 169.728 136.362 169.736 136.363C169.744 136.363 169.752 136.362 169.759 136.359C172.562 135.609 174.957 133.784 176.424 131.281C176.532 131.105 176.485 131.05 176.349 131.206Z" fill="#263238"/>
<path d="M154.117 132.291C155.363 130.737 156.723 129.278 158.185 127.925C159.636 126.766 166.626 124.44 167.216 125.891C167.976 127.803 164.206 129.959 162.219 130.746C162.219 130.746 163.982 135.166 161.602 137.288C159.223 139.41 154.117 132.291 154.117 132.291Z" fill="#F7A9A0"/>
<path d="M167.23 126.515C166.661 128.759 163.99 129.647 162.125 130.583C162.097 130.595 162.073 130.614 162.053 130.637C162.034 130.661 162.021 130.689 162.015 130.719C162.009 130.749 162.01 130.78 162.019 130.809C162.028 130.839 162.043 130.866 162.064 130.888C162.674 132.793 162.986 135.634 161.712 137.335C161.671 137.383 161.712 137.444 161.779 137.403C163.4 135.783 163.318 132.949 162.512 130.908C164.444 129.986 167.081 128.976 167.258 126.528C167.251 126.508 167.23 126.501 167.23 126.515Z" fill="#263238"/>
<path d="M146.951 132.101C146.951 132.101 149.392 131.369 149.616 132.047C149.839 132.725 148.592 133.701 148.592 133.701C148.592 133.701 150.294 133.701 150.511 134.779C150.728 135.857 148.944 136.542 148.944 136.542C148.944 136.542 150.789 137.071 150.85 137.837C150.931 138.868 149.358 139.41 149.358 139.41C149.358 139.41 151.148 139.552 151.216 140.563C151.284 141.573 149.656 142.068 149.656 142.068C149.656 142.068 151.541 142.305 151.724 143.064C151.934 143.966 150.084 144.773 150.084 144.773C150.084 144.773 151.867 145.065 151.975 145.844C152.084 146.624 150.321 147.268 149.399 147.275L146.951 132.101Z" fill="white"/>
<path d="M149.71 147.404C149.71 147.404 140.659 147.919 139.384 147.465C137.997 146.966 136.639 146.388 135.316 145.736C125.289 140.847 117.343 132.278 114.915 129.138C112.359 125.823 112.352 121.83 116.658 123.077C116.976 123.172 117.336 123.294 117.682 123.443C122.997 125.647 137.635 132.854 139.154 132.969C140.672 133.084 147.419 131.756 147.419 131.756L149.71 147.404Z" fill="#0D5FAA"/>
<path d="M135.303 145.77C125.275 140.881 117.329 132.312 114.902 129.172C112.346 125.857 112.339 121.864 116.644 123.111L135.303 145.77Z" fill="#263238"/>
<path d="M122.928 148.678L123.105 164.218C121.212 164.323 119.315 164.323 117.423 164.218C112.426 163.983 107.446 163.467 102.507 162.672C97.6187 161.906 91.8625 160.794 85.252 159.181C85.252 159.181 97.022 131.667 106.27 123.464C106.482 123.274 106.693 123.097 106.9 122.935L107.023 122.833C111.26 119.504 115.552 121.328 118.182 124.298C118.86 125.037 125.64 137.078 125.823 141.329C125.952 145.092 122.928 148.678 122.928 148.678Z" fill="#0D5FAA"/>
<path d="M117.424 164.232C112.427 163.997 107.447 163.481 102.508 162.686C103.186 155.438 105.505 130.82 106.25 123.477C106.463 123.287 106.673 123.111 106.881 122.948L117.424 164.232Z" fill="#263238"/>
<path d="M104.528 129.254C105.803 138.129 109.023 156.076 114.02 160.442C120.583 166.185 135.77 167.222 140.272 167.547C142.232 167.69 143.933 154.72 142.476 153.214C141.018 151.709 125.431 151.194 124.075 150.469C122.719 149.743 115.939 136.319 112.596 129.451C108.365 120.86 104.026 125.755 104.528 129.254Z" fill="#F7A9A0"/>
<path d="M154.409 155.465C156.863 155.512 160.138 153.546 160.639 155.302C161.087 156.868 158.687 158.014 158.687 158.014C158.687 158.014 161.806 157.601 161.812 159.424C161.819 161.248 158.924 161.953 158.924 161.953C158.924 161.953 161.812 161.73 161.69 163.547C161.568 165.364 158.91 166.184 158.91 166.184C158.91 166.184 159.738 166.557 159.073 167.798C158.117 169.574 153.825 170.327 151.486 170.191C149.147 170.056 140.706 167.811 139.418 167.479L140.184 152.482C140.184 152.482 144.449 150.814 146.72 150.231C148.991 149.648 156.992 149.804 157.087 151.79C157.182 153.777 151.527 153.573 150.137 153.824C148.747 154.075 148.564 154.441 149.276 154.821C150.965 155.183 152.682 155.398 154.409 155.465Z" fill="#F7A9A0"/>
<path d="M158.551 158.008C155.093 159.364 153.344 159.364 149.737 158.686C149.669 158.686 149.628 158.774 149.737 158.794C153.188 159.791 155.378 160.11 158.639 158.191C158.781 158.076 158.714 157.974 158.551 158.008Z" fill="#263238"/>
<path d="M159.059 161.859C155.344 162.951 153.452 162.964 149.642 162.537C149.587 162.537 149.574 162.618 149.642 162.632C153.343 163.378 155.533 163.656 159.1 162.076C159.249 161.981 159.229 161.805 159.059 161.859Z" fill="#263238"/>
<path d="M158.862 166.157C155.194 166.957 153.113 167.059 149.472 166.157C149.454 166.152 149.435 166.154 149.418 166.163C149.402 166.172 149.389 166.187 149.384 166.205C149.378 166.223 149.38 166.242 149.389 166.259C149.398 166.275 149.413 166.287 149.431 166.293C152.458 167.528 155.849 167.528 158.876 166.293C159.093 166.191 159.093 166.11 158.862 166.157Z" fill="#263238"/>
<path d="M130.408 150.305C130.408 150.305 133.181 150.373 133.188 151.153C133.195 151.933 131.568 152.509 131.568 152.509C131.568 152.509 133.317 153.112 133.188 154.278C133.059 155.445 130.971 155.573 130.971 155.573C130.971 155.573 132.707 156.746 132.51 157.567C132.252 158.658 130.435 158.692 130.435 158.692C130.435 158.692 132.246 159.445 131.968 160.516C131.69 161.587 129.846 161.547 129.846 161.547C129.846 161.547 131.717 162.428 131.649 163.276C131.568 164.279 129.378 164.496 129.378 164.496C129.378 164.496 131.12 165.398 130.971 166.245C130.822 167.093 128.774 167.16 127.818 166.855L130.408 150.305Z" fill="white"/>
<path d="M131.566 150.184L128.508 167.134C128.508 167.134 115.708 163.859 112.989 159.798C109.599 154.727 105.185 138.78 104.222 130.285C103.26 121.789 109.253 121.552 112.745 128.501C116.135 135.248 123.335 148.645 123.898 149.221C124.63 149.994 131.566 150.184 131.566 150.184Z" fill="#0D5FAA"/>
<path d="M123.009 147.499C122.664 146.821 121.979 145.39 121.653 144.787C120.975 143.54 120.263 142.292 119.552 141.051C118.84 139.811 118.141 138.563 117.409 137.336C117.28 137.132 117.165 136.915 117.036 136.705C117.036 136.556 116.494 134.834 116.412 134.4C116.412 134.332 116.29 134.353 116.311 134.4C116.42 134.826 116.5 135.258 116.548 135.695C116.548 135.776 116.548 135.858 116.602 135.939C116.134 135.132 115.667 134.319 115.192 133.539C115.158 133.478 115.063 133.539 115.097 133.587C116.039 135.282 116.555 136.366 117.267 137.749C117.979 139.133 118.697 140.414 119.423 141.736C120.148 143.058 120.907 144.373 121.653 145.682C122.087 146.467 122.56 147.23 123.07 147.967C123.396 148.428 123.396 148.17 123.009 147.499Z" fill="#263238"/>
<path d="M110.637 122.318C110.786 122.901 113.647 126.671 116.332 126.508C117.207 126.447 117.112 121.66 117.112 121.66L117.187 121.308L118.217 116.338L112.339 112.697L111.491 112.216C111.491 112.216 111.302 113.572 111.078 115.314C111.078 115.396 111.078 115.477 111.078 115.558C111.058 115.65 111.044 115.743 111.037 115.836C110.996 116.094 110.963 116.358 110.929 116.616C110.895 116.874 110.881 117.009 110.868 117.219C110.854 117.43 110.827 117.633 110.8 117.843C110.642 119.329 110.587 120.824 110.637 122.318Z" fill="#F7A9A0"/>
<path d="M111.078 115.314C111.599 116.696 112.415 117.949 113.468 118.984C114.522 120.019 115.789 120.812 117.18 121.308L118.211 116.338L112.332 112.697L111.485 112.216C111.485 112.216 111.302 113.599 111.078 115.314Z" fill="#263238"/>
<path d="M110.637 111.354C110.637 111.354 108.603 108.642 107.39 109.32C106.176 109.998 107.688 114.066 109.179 114.554C109.366 114.634 109.567 114.676 109.77 114.676C109.972 114.677 110.173 114.636 110.36 114.557C110.547 114.478 110.716 114.362 110.857 114.216C110.998 114.07 111.107 113.897 111.18 113.707L110.637 111.354Z" fill="#F7A9A0"/>
<path d="M107.863 110.467C107.863 110.467 107.829 110.467 107.863 110.507C108.347 110.733 108.778 111.058 109.128 111.461C109.479 111.864 109.741 112.336 109.897 112.846C109.833 112.745 109.749 112.658 109.649 112.592C109.55 112.526 109.437 112.481 109.319 112.462C109.201 112.443 109.08 112.449 108.965 112.48C108.849 112.511 108.742 112.567 108.649 112.643C108.649 112.643 108.649 112.711 108.649 112.704C108.83 112.642 109.025 112.637 109.209 112.69C109.392 112.744 109.554 112.853 109.673 113.002C109.869 113.256 110.04 113.528 110.181 113.816C110.229 113.911 110.398 113.857 110.358 113.748C110.351 112.406 109.287 110.568 107.863 110.467Z" fill="#263238"/>
<path d="M124.835 108.317C125.784 117.172 120.584 118.745 118.672 118.941C116.943 119.131 111.017 119.531 109.18 110.805C107.342 102.079 111.139 98.8521 115.078 98.2216C119.017 97.591 123.886 99.4623 124.835 108.317Z" fill="#F7A9A0"/>
<path d="M123.057 107.124C122.852 107.1 122.649 107.066 122.447 107.022C122.229 107.015 122.019 106.936 121.85 106.798C121.808 106.743 121.785 106.675 121.785 106.605C121.785 106.535 121.808 106.467 121.85 106.412C121.947 106.31 122.069 106.236 122.204 106.198C122.339 106.16 122.481 106.159 122.617 106.195C122.902 106.228 123.165 106.366 123.356 106.581C123.398 106.633 123.425 106.696 123.431 106.762C123.438 106.829 123.424 106.896 123.392 106.954C123.36 107.013 123.31 107.061 123.251 107.091C123.191 107.121 123.124 107.132 123.057 107.124Z" fill="#263238"/>
<path d="M116.903 107.564C117.113 107.531 117.296 107.463 117.499 107.415C117.718 107.39 117.922 107.295 118.082 107.144C118.125 107.089 118.148 107.021 118.148 106.951C118.148 106.881 118.125 106.813 118.082 106.758C117.978 106.665 117.851 106.601 117.714 106.574C117.577 106.546 117.435 106.556 117.303 106.602C117.032 106.662 116.792 106.816 116.625 107.036C116.59 107.086 116.57 107.146 116.567 107.207C116.564 107.268 116.577 107.329 116.605 107.383C116.634 107.437 116.677 107.483 116.729 107.515C116.781 107.547 116.841 107.564 116.903 107.564Z" fill="#263238"/>
<path d="M118.17 109.761C118.17 109.761 118.123 109.795 118.129 109.822C118.184 110.426 118.129 111.124 117.607 111.362V111.395C118.279 111.26 118.319 110.324 118.17 109.761Z" fill="#263238"/>
<path d="M117.592 109.158C116.616 109.158 116.657 111.097 117.558 111.111C118.46 111.124 118.413 109.158 117.592 109.158Z" fill="#263238"/>
<path d="M117.207 109.273C117.045 109.388 116.882 109.592 116.672 109.612C116.461 109.633 116.251 109.443 116.089 109.246H116.055C116.055 109.619 116.211 109.999 116.617 110.046C117.024 110.094 117.241 109.755 117.295 109.368C117.343 109.334 117.295 109.233 117.207 109.273Z" fill="#263238"/>
<path d="M121.959 109.409C121.959 109.409 122.013 109.409 122.006 109.463C122.006 110.066 122.088 110.765 122.637 110.955C122.637 110.955 122.637 110.995 122.637 110.955C121.966 110.907 121.857 109.978 121.959 109.409Z" fill="#263238"/>
<path d="M122.494 108.765C123.471 108.684 123.572 110.636 122.671 110.718C121.769 110.799 121.681 108.84 122.494 108.765Z" fill="#263238"/>
<path d="M122.908 108.873C123.07 108.968 123.233 109.151 123.416 109.151C123.599 109.151 123.775 108.934 123.904 108.724C123.904 108.724 123.904 108.724 123.938 108.724C123.938 109.097 123.864 109.497 123.504 109.585C123.145 109.673 122.928 109.361 122.826 108.988C122.799 108.941 122.847 108.832 122.908 108.873Z" fill="#263238"/>
<path d="M118.569 114.406C118.712 114.555 118.847 114.751 119.071 114.778C119.304 114.781 119.535 114.735 119.749 114.643C119.749 114.643 119.79 114.643 119.749 114.643C119.659 114.76 119.54 114.851 119.402 114.906C119.265 114.961 119.116 114.978 118.97 114.955C118.849 114.915 118.742 114.843 118.66 114.746C118.579 114.649 118.526 114.531 118.508 114.406C118.502 114.399 118.549 114.385 118.569 114.406Z" fill="#263238"/>
<path d="M121.029 112.134C121.029 112.134 121.185 113.036 121.199 113.49C121.199 113.531 121.097 113.551 120.948 113.565C120.58 113.652 120.194 113.635 119.834 113.515C119.475 113.396 119.156 113.178 118.914 112.887C118.914 112.846 118.914 112.799 118.982 112.826C119.536 113.179 120.191 113.343 120.846 113.293C120.846 113.178 120.534 111.761 120.602 111.754C120.935 111.773 121.263 111.837 121.579 111.944C121.307 110.053 120.738 108.229 120.501 106.344C120.505 106.332 120.513 106.322 120.523 106.314C120.533 106.307 120.546 106.303 120.558 106.303C120.571 106.303 120.583 106.307 120.594 106.314C120.604 106.322 120.612 106.332 120.616 106.344C121.282 108.284 121.754 110.284 122.026 112.317C122.087 112.493 121.199 112.202 121.029 112.134Z" fill="#263238"/>
<path d="M109.702 111.395C111.166 111.395 111.268 108.311 111.268 108.311C111.268 108.311 114.224 108.094 114.875 103.761C114.889 105.043 114.528 106.301 113.837 107.382C113.837 107.382 119.011 106.426 120.875 101.89C120.875 101.89 120.197 104.182 119.404 105.036C120.698 104.529 121.783 103.599 122.482 102.398C122.482 102.398 123.587 104.846 124.346 105.49C124.346 105.49 123.424 96.371 115.038 97.9982C115.038 97.9982 109.769 98.7575 108.19 103.097C106.61 107.436 109.702 111.395 109.702 111.395Z" fill="#263238"/>
<path d="M111.192 121.063C110.107 121.165 108.304 121.558 106.039 123.687C106.039 123.687 111.592 127.287 116.372 126.806C118.08 126.637 118.406 123.762 118.406 123.762C117.473 122.813 116.344 122.08 115.098 121.614C113.851 121.147 112.518 120.96 111.192 121.063Z" fill="#F7A9A0"/>
<path d="M220.884 296.015C222.172 296.449 259.048 296.578 260.459 295.696C260.994 295.364 261.326 289.994 261.543 283.492C261.591 282.089 261.631 280.638 261.659 279.167L264.649 259.505L240.01 259.342L237.684 279.004L237.779 283.336C237.779 283.336 223.636 289.601 222.185 290.733C220.734 291.865 219.595 295.608 220.884 296.015Z" fill="#DD6A57"/>
<path d="M220.885 296.015C222.173 296.449 259.049 296.578 260.46 295.696C261.138 295.29 261.463 287.445 261.66 279.167L237.672 279.011L237.767 283.343C237.767 283.343 223.624 289.608 222.173 290.74C220.722 291.872 219.597 295.608 220.885 296.015Z" fill="white"/>
<path d="M220.885 296.015C222.173 296.449 259.049 296.577 260.46 295.696C260.995 295.364 261.327 289.994 261.544 283.492L237.767 283.343C237.767 283.343 223.624 289.608 222.173 290.74C220.722 291.872 219.597 295.608 220.885 296.015Z" fill="#0D5FAA"/>
<path d="M221.42 294.537C227.597 294.408 252.547 294.469 258.669 294.808C258.717 294.808 258.717 294.849 258.669 294.849C252.567 295.113 227.597 294.849 221.42 294.639C221.284 294.639 221.284 294.544 221.42 294.537Z" fill="#263238"/>
<path d="M224.56 289.425C225.247 289.409 225.93 289.536 226.566 289.798C227.202 290.059 227.777 290.449 228.255 290.944C229.115 291.831 229.6 293.016 229.611 294.252C229.611 294.286 229.543 294.286 229.536 294.252C229.329 293.028 228.731 291.904 227.832 291.048C226.932 290.193 225.779 289.652 224.546 289.506C224.535 289.504 224.526 289.498 224.519 289.489C224.513 289.481 224.51 289.47 224.512 289.459C224.514 289.448 224.52 289.438 224.529 289.432C224.538 289.426 224.549 289.423 224.56 289.425Z" fill="#263238"/>
<path d="M235.367 283.947C237.842 283.947 240.71 284.808 242.235 286.835C242.296 286.909 242.181 286.998 242.113 286.957C239.956 285.815 237.683 284.906 235.333 284.245C235.302 284.232 235.275 284.209 235.258 284.18C235.241 284.151 235.233 284.117 235.237 284.083C235.241 284.049 235.256 284.017 235.279 283.993C235.303 283.968 235.334 283.952 235.367 283.947Z" fill="#263238"/>
<path d="M233.455 284.686C235.93 284.686 238.798 285.54 240.323 287.574C240.384 287.648 240.269 287.737 240.201 287.696C238.044 286.554 235.771 285.645 233.421 284.984C233.39 284.971 233.363 284.948 233.346 284.919C233.329 284.89 233.321 284.856 233.325 284.822C233.329 284.788 233.344 284.756 233.367 284.732C233.391 284.707 233.422 284.691 233.455 284.686Z" fill="#263238"/>
<path d="M231.542 285.438C234.017 285.438 236.878 286.292 238.41 288.326C238.471 288.401 238.356 288.482 238.282 288.448C236.125 287.305 233.852 286.395 231.502 285.736C231.47 285.723 231.444 285.7 231.427 285.67C231.41 285.64 231.403 285.606 231.408 285.572C231.412 285.538 231.428 285.506 231.452 285.482C231.477 285.458 231.508 285.442 231.542 285.438Z" fill="#263238"/>
<path d="M229.63 286.164C232.105 286.164 234.966 287.018 236.498 289.045C236.559 289.127 236.444 289.208 236.369 289.174C234.214 288.028 231.941 287.118 229.589 286.462C229.558 286.449 229.532 286.425 229.515 286.396C229.498 286.366 229.491 286.331 229.496 286.297C229.5 286.263 229.516 286.232 229.54 286.208C229.565 286.184 229.596 286.168 229.63 286.164Z" fill="#263238"/>
<path d="M257.117 288.937C259.89 288.937 259.869 293.262 257.083 293.249C254.296 293.235 254.33 288.916 257.117 288.937Z" fill="#263238"/>
<path d="M232.899 280.963C234.255 282.692 236.289 283.784 238.018 285.031C238.059 285.055 238.105 285.068 238.153 285.071C238.2 285.073 238.247 285.064 238.291 285.045C238.334 285.026 238.372 284.997 238.403 284.961C238.433 284.924 238.454 284.881 238.465 284.835C238.475 284.837 238.485 284.837 238.494 284.834C238.504 284.832 238.513 284.827 238.52 284.82C238.528 284.814 238.533 284.805 238.537 284.796C238.54 284.787 238.541 284.777 238.54 284.767C238.366 282.496 237.599 280.31 236.316 278.428C235.55 277.35 233.97 276.326 232.716 277.363C231.461 278.4 232.126 279.953 232.899 280.963ZM232.79 278.929C233.048 276.217 235.468 278.312 236.004 279.133C236.342 279.668 236.643 280.225 236.906 280.801C237.462 281.994 237.848 283.241 238.262 284.475C237.435 283.797 236.56 283.241 235.712 282.618C234.723 281.865 232.655 280.394 232.79 278.916V278.929Z" fill="#263238"/>
<path d="M247.335 283.194C247.145 281.574 245.301 281.221 243.999 281.465C241.761 281.925 239.683 282.968 237.978 284.489C237.97 284.495 237.963 284.502 237.958 284.511C237.954 284.52 237.951 284.53 237.951 284.54C237.951 284.55 237.954 284.56 237.958 284.569C237.963 284.578 237.97 284.585 237.978 284.591C237.954 284.631 237.939 284.677 237.935 284.725C237.931 284.772 237.938 284.82 237.956 284.864C237.973 284.908 238.001 284.947 238.037 284.979C238.073 285.01 238.115 285.033 238.161 285.045C240.277 285.377 242.494 286.001 244.65 285.676C245.945 285.486 247.511 284.72 247.335 283.194ZM241.504 284.896C240.46 284.753 239.429 284.564 238.378 284.462C239.551 283.879 240.69 283.248 241.924 282.781C242.511 282.543 243.113 282.348 243.728 282.197C244.684 281.974 247.864 282.157 246.182 284.272C245.26 285.438 242.724 285.065 241.504 284.896Z" fill="#263238"/>
<path d="M300.874 168.578C300.874 168.578 272.249 217.286 271.483 220.703C270.303 225.957 264.059 277.845 264.059 277.845L234.268 277.302C234.268 277.302 239.407 231.551 244.268 216.479C247.773 205.631 273.036 169.615 273.036 169.615L300.874 168.578Z" fill="#0D5FAA"/>
<path d="M236.981 272.746C241.26 272.746 256.42 272.543 262.115 273.072C262.126 273.072 262.136 273.076 262.144 273.084C262.151 273.091 262.156 273.102 262.156 273.112C262.156 273.123 262.151 273.133 262.144 273.141C262.136 273.149 262.126 273.153 262.115 273.153C260.149 273.438 241.253 272.997 236.981 272.861C236.972 272.865 236.962 272.866 236.953 272.864C236.943 272.863 236.934 272.859 236.926 272.854C236.918 272.848 236.912 272.84 236.907 272.832C236.903 272.823 236.9 272.814 236.9 272.804C236.9 272.794 236.903 272.785 236.907 272.776C236.912 272.767 236.918 272.76 236.926 272.754C236.934 272.748 236.943 272.745 236.953 272.743C236.962 272.742 236.972 272.743 236.981 272.746Z" fill="#263238"/>
<path d="M295.994 173.046C294.116 175.988 292.136 178.87 290.218 181.792C288.299 184.714 286.387 187.63 284.502 190.565C280.723 196.441 277.04 202.369 273.451 208.349C271.704 211.101 270.211 214.006 268.989 217.028C267.858 220.06 267.01 223.189 266.454 226.377C265.871 229.571 265.484 232.798 265.098 236.025C264.713 239.465 264.329 242.902 263.945 246.338L261.592 267.43C261.491 268.291 261.396 269.152 261.314 270.02C261.314 270.142 261.525 270.169 261.545 270.02C262.42 263.037 263.145 256.026 263.945 249.002C264.338 245.517 264.734 242.035 265.132 238.554C265.498 235.313 265.85 232.073 266.352 228.852C266.818 225.676 267.521 222.54 268.454 219.469C269.482 216.287 270.863 213.231 272.569 210.356C276.02 204.403 279.675 198.552 283.329 192.728C286.984 186.904 290.733 180.972 294.584 175.188C295.065 174.47 295.54 173.758 296.035 173.059C296.123 173.046 296.028 172.992 295.994 173.046Z" fill="#263238"/>
<path d="M275.566 300.11C276.922 300.198 313.534 290.55 314.652 289.337C314.701 289.264 314.731 289.18 314.741 289.093C314.883 287.893 313.012 283.397 311.696 277.648C311.615 277.282 310.93 275.533 309.961 273.18C307.31 266.698 302.57 255.586 302.57 255.586L278.657 261.708L287.471 279.391L288.665 283.553C288.665 283.553 276.623 293.215 275.484 294.679C274.345 296.144 274.216 300.015 275.566 300.11Z" fill="#DD6A57"/>
<path d="M275.566 300.11C276.922 300.198 313.534 290.55 314.652 289.336C314.701 289.263 314.731 289.18 314.741 289.092C314.883 287.892 313.012 283.397 311.696 277.648C311.615 277.282 310.93 275.532 309.961 273.18L287.471 279.39L288.665 283.553C288.665 283.553 276.623 293.215 275.484 294.679C274.345 296.144 274.216 300.015 275.566 300.11Z" fill="white"/>
<path d="M275.572 300.103C276.928 300.198 313.54 290.55 314.651 289.337C315.085 288.882 314.136 283.913 311.702 277.648L288.65 283.553C288.65 283.553 276.622 293.215 275.483 294.679C274.344 296.144 274.216 300.015 275.572 300.103Z" fill="#0D5FAA"/>
<path d="M275.715 298.544C281.654 296.849 305.798 290.55 311.805 289.323C311.852 289.323 311.859 289.323 311.805 289.364C305.954 291.174 281.762 297.276 275.728 298.646C275.606 298.673 275.586 298.585 275.715 298.544Z" fill="#263238"/>
<path d="M277.451 292.794C278.112 292.606 278.805 292.557 279.487 292.649C280.168 292.741 280.823 292.973 281.41 293.33C282.471 293.965 283.246 294.985 283.573 296.178C283.573 296.211 283.519 296.232 283.499 296.178C282.99 295.045 282.127 294.108 281.04 293.508C279.953 292.908 278.701 292.676 277.471 292.849C277.417 292.896 277.403 292.815 277.451 292.794Z" fill="#263238"/>
<path d="M286.501 284.76C288.888 284.082 291.885 284.225 293.885 285.798C293.959 285.859 293.885 285.967 293.79 285.954C291.413 285.397 288.983 285.099 286.542 285.065C286.505 285.064 286.47 285.05 286.442 285.025C286.415 285.001 286.397 284.967 286.392 284.93C286.387 284.894 286.395 284.856 286.415 284.825C286.435 284.794 286.466 284.771 286.501 284.76Z" fill="#263238"/>
<path d="M284.841 285.953C287.228 285.275 290.224 285.425 292.225 286.991C292.299 287.052 292.225 287.167 292.13 287.147C289.753 286.59 287.323 286.292 284.882 286.259C284.845 286.257 284.809 286.243 284.782 286.219C284.754 286.194 284.737 286.16 284.732 286.123C284.727 286.087 284.735 286.049 284.755 286.018C284.775 285.987 284.806 285.964 284.841 285.953Z" fill="#263238"/>
<path d="M283.18 287.154C285.567 286.476 288.563 286.625 290.563 288.198C290.638 288.252 290.563 288.367 290.468 288.347C288.089 287.79 285.657 287.492 283.214 287.459C283.177 287.456 283.143 287.441 283.116 287.416C283.09 287.39 283.073 287.357 283.069 287.32C283.065 287.284 283.074 287.247 283.094 287.217C283.115 287.186 283.145 287.164 283.18 287.154Z" fill="#263238"/>
<path d="M281.518 288.353C283.904 287.675 286.901 287.824 288.895 289.397C288.976 289.458 288.895 289.567 288.806 289.547C286.427 288.99 283.995 288.692 281.552 288.658C281.515 288.656 281.481 288.641 281.454 288.615C281.428 288.59 281.411 288.556 281.407 288.52C281.403 288.484 281.412 288.447 281.432 288.417C281.452 288.386 281.483 288.364 281.518 288.353Z" fill="#263238"/>
<path d="M308.808 284.034C311.52 283.356 312.571 287.526 309.879 288.218C307.188 288.909 306.11 284.76 308.808 284.034Z" fill="#263238"/>
<path d="M283.363 282.496C285.085 283.852 287.329 284.36 289.336 285.099C289.382 285.111 289.43 285.111 289.476 285.101C289.522 285.091 289.565 285.071 289.602 285.041C289.639 285.012 289.668 284.974 289.688 284.931C289.708 284.888 289.717 284.841 289.716 284.794C289.726 284.793 289.736 284.791 289.745 284.786C289.754 284.78 289.762 284.773 289.768 284.765C289.774 284.756 289.778 284.747 289.779 284.736C289.781 284.726 289.78 284.716 289.777 284.706C289.03 282.556 287.732 280.639 286.014 279.146C284.99 278.299 283.207 277.709 282.258 279.031C281.309 280.353 282.353 281.716 283.363 282.496ZM282.732 280.536C282.298 277.872 285.166 279.262 285.892 279.919C286.355 280.353 286.787 280.817 287.187 281.309C287.997 282.335 288.755 283.401 289.458 284.502C288.489 284.082 287.499 283.743 286.516 283.357C285.349 282.896 282.976 282.007 282.726 280.536H282.732Z" fill="#263238"/>
<path d="M297.885 280.97C297.288 279.458 295.417 279.58 294.223 280.15C292.184 281.167 290.449 282.703 289.193 284.604C289.186 284.61 289.18 284.617 289.176 284.625C289.172 284.634 289.17 284.642 289.17 284.652C289.17 284.661 289.172 284.67 289.176 284.678C289.18 284.686 289.186 284.693 289.193 284.699C289.179 284.745 289.176 284.793 289.184 284.84C289.192 284.886 289.211 284.931 289.24 284.969C289.268 285.007 289.305 285.038 289.347 285.06C289.39 285.081 289.437 285.092 289.484 285.092C291.613 284.875 293.918 284.909 295.918 284.048C297.125 283.546 298.447 282.407 297.885 280.97ZM292.684 284.082C291.633 284.218 290.589 284.292 289.552 284.462C290.535 283.601 291.477 282.699 292.542 281.933C293.052 281.556 293.586 281.214 294.142 280.909C295.01 280.455 298.135 279.817 297.051 282.265C296.447 283.675 293.925 283.953 292.684 284.082Z" fill="#263238"/>
<path d="M285.844 278.258L312.604 271.234C312.604 271.234 286.983 220.804 287.193 217.319C287.376 214.235 305.96 187.169 306.99 182.104C308.672 173.812 304.631 166.408 300.719 161.818L273.036 169.622C274.523 172.652 276.657 175.318 279.287 177.433C279.287 177.433 261.89 206.485 261.449 216.038C261.008 225.591 285.844 278.258 285.844 278.258Z" fill="#0D5FAA"/>
<path d="M285.33 273.268C289.215 272.156 288.082 272.421 291.981 271.356C293.886 270.834 306.415 267.41 308.253 267.234C308.294 267.234 308.307 267.295 308.253 267.308C306.544 268.081 293.961 271.282 292.042 271.77C288.13 272.766 289.242 272.448 285.316 273.383C285.289 273.404 285.262 273.295 285.33 273.268Z" fill="#263238"/>
<path d="M275.037 176.321C277.699 177.303 280.271 178.512 282.725 179.935C282.742 179.947 282.753 179.965 282.758 179.984C282.763 180.004 282.761 180.025 282.752 180.043C282.743 180.062 282.728 180.077 282.71 180.085C282.692 180.094 282.671 180.096 282.651 180.091C280.068 178.959 277.43 177.881 274.915 176.62C274.881 176.6 274.855 176.568 274.843 176.531C274.83 176.494 274.831 176.454 274.846 176.417C274.861 176.381 274.888 176.351 274.924 176.334C274.959 176.316 274.999 176.312 275.037 176.321Z" fill="#263238"/>
<path d="M278.292 175.636C278.489 176.122 278.654 176.62 278.786 177.127C278.928 177.52 278.995 177.937 278.983 178.355C278.983 178.429 278.861 178.436 278.82 178.355C278.587 177.986 278.413 177.584 278.305 177.161C278.136 176.7 277.953 176.239 277.803 175.805C277.781 175.741 277.785 175.67 277.815 175.608C277.845 175.546 277.898 175.499 277.963 175.476C278.027 175.454 278.098 175.458 278.16 175.488C278.222 175.518 278.269 175.571 278.292 175.636Z" fill="#263238"/>
<path d="M278.292 173.127C278.183 172.707 278.068 172.28 277.953 171.859C277.838 171.439 277.675 170.985 277.587 170.544C277.587 170.47 277.465 170.503 277.478 170.544C277.587 170.971 277.641 171.419 277.716 171.853C277.79 172.287 277.872 172.714 277.96 173.148C278.122 173.958 278.326 174.759 278.57 175.548C278.135 175.515 277.714 175.385 277.336 175.168C276.969 174.863 276.705 174.45 276.583 173.988C276.414 173.507 276.258 173.019 276.075 172.537C275.853 172.015 275.674 171.475 275.539 170.924C275.539 170.849 275.417 170.883 275.431 170.924C275.647 172.084 275.979 173.22 276.421 174.314C276.61 174.748 276.753 175.188 277.18 175.405C277.65 175.604 278.155 175.703 278.665 175.697C278.719 175.697 278.807 175.697 278.794 175.616C278.668 174.778 278.501 173.948 278.292 173.127Z" fill="#263238"/>
<path d="M278.753 178.382C277.702 180.287 276.495 182.111 275.363 183.969C274.23 185.826 273.22 187.63 272.189 189.494C270.119 193.25 268.207 197.092 266.454 201.02C265.586 202.959 264.768 204.919 263.999 206.899C263.174 208.88 262.494 210.92 261.965 213.001C261.472 215.066 261.38 217.206 261.694 219.306C262.079 221.444 262.625 223.549 263.328 225.605C264.763 230.343 266.51 234.981 268.555 239.49C268.623 239.639 268.874 239.524 268.82 239.375C267.355 235.246 265.837 231.137 264.528 226.961C263.253 222.893 261.741 218.709 262.447 214.411C262.834 212.345 263.422 210.321 264.203 208.37C264.948 206.336 265.755 204.376 266.603 202.417C268.284 198.546 270.176 194.789 272.101 191.04C273.179 188.938 274.318 186.87 275.41 184.775C276.502 182.68 277.58 180.511 278.8 178.477C278.881 178.375 278.786 178.314 278.753 178.382Z" fill="#263238"/>
<path d="M298.91 174.321C298.476 174.097 297.811 174.321 297.337 174.321C296.726 174.343 296.115 174.325 295.506 174.266C294.906 174.208 294.311 174.113 293.723 173.982C293.127 173.885 292.561 173.653 292.069 173.304C291.283 172.561 290.644 171.678 290.184 170.7C289.606 169.693 289.161 168.615 288.862 167.493C288.862 167.425 288.753 167.493 288.76 167.527C288.875 168.158 288.936 168.795 289.106 169.419C289.27 170.01 289.483 170.586 289.743 171.141C290.136 172.242 290.801 173.226 291.675 174.002C292.659 174.741 294.021 174.877 295.208 174.965C295.885 175.014 296.565 175.014 297.242 174.965C297.737 174.924 298.557 174.965 298.923 174.565C298.942 174.55 298.957 174.531 298.967 174.509C298.977 174.487 298.981 174.463 298.98 174.439C298.979 174.415 298.972 174.392 298.959 174.371C298.947 174.351 298.93 174.333 298.91 174.321Z" fill="#263238"/>
<path d="M305.96 265.451C302.593 258.59 299.302 251.685 296.088 244.738C292.875 237.791 289.731 230.792 286.657 223.74C285.815 222.087 285.144 220.351 284.657 218.56C284.237 216.594 284.847 214.825 285.674 213.062C287.225 209.843 288.957 206.715 290.861 203.692C292.746 200.641 294.732 197.664 296.692 194.668C298.728 191.739 300.596 188.697 302.285 185.555C303.889 182.594 304.563 179.217 304.218 175.867C303.784 172.477 302.319 169.31 300.753 166.327L299.492 163.968C299.492 163.907 299.37 163.968 299.404 164.022C301.153 167.154 302.835 170.443 303.648 173.955C304.071 175.691 304.202 177.485 304.035 179.264C303.818 181.063 303.309 182.814 302.529 184.45C301.079 187.65 299.051 190.593 297.105 193.529C295.16 196.464 293.153 199.502 291.248 202.532C289.306 205.571 287.527 208.71 285.918 211.936C285.108 213.351 284.548 214.894 284.264 216.499C284.074 218.269 284.718 219.971 285.403 221.571C288.38 228.547 291.505 235.463 294.692 242.351C297.878 249.24 301.173 256.128 304.523 262.969L305.797 265.553C305.858 265.661 306.014 265.559 305.96 265.451Z" fill="#263238"/>
<path d="M277.43 138.095C274.99 141.567 261.45 152.937 249.388 153.601C245.286 153.832 226.194 141.77 222.567 139.485C218.322 136.814 226.77 125.654 229.686 126.142C233.32 126.752 248.263 139.512 250.819 139.58C254.928 139.689 265.938 135.634 274.44 133.838C278.82 132.888 279.336 135.424 277.43 138.095Z" fill="#DD6A57"/>
<path d="M277.451 139.329C274.454 143.824 264.42 151.194 264.42 151.194L263.064 148.129L258.379 137.959C258.379 137.959 267.593 134.983 273.661 133.647C274.376 133.48 275.104 133.371 275.837 133.322C279.682 133.071 280.014 135.464 277.451 139.329Z" fill="#EBEBEB"/>
<path d="M266.013 136.217C266.133 136.64 266.19 137.079 266.183 137.519C266.193 137.959 266.136 138.398 266.013 138.82C265.787 137.967 265.787 137.07 266.013 136.217Z" fill="white"/>
<path d="M264.771 141.478C263.92 141.704 263.025 141.704 262.174 141.478C263.025 141.252 263.92 141.252 264.771 141.478Z" fill="white"/>
<path d="M277.926 134.204C277.502 134.323 277.064 134.38 276.624 134.373C276.184 134.384 275.745 134.326 275.322 134.204C276.175 133.978 277.073 133.978 277.926 134.204Z" fill="white"/>
<path d="M270.752 139.485C271.132 139.704 271.481 139.973 271.789 140.285C272.106 140.59 272.375 140.939 272.589 141.322C271.829 140.878 271.196 140.246 270.752 139.485Z" fill="white"/>
<path d="M265.775 145.682C266.156 145.901 266.505 146.17 266.813 146.482C267.129 146.786 267.399 147.136 267.613 147.519C267.231 147.305 266.882 147.038 266.575 146.726C266.261 146.417 265.992 146.066 265.775 145.682Z" fill="white"/>
<path d="M277.45 139.329C274.453 143.824 264.418 151.194 264.418 151.194L263.062 148.13C266.785 143.75 272.554 137.119 275.836 133.302C279.68 133.071 280.012 135.465 277.45 139.329Z" fill="#C7C7C7"/>
<path d="M266.243 149.16C265.47 147.289 262.005 139.729 261.144 138.149C261.083 138.034 261.002 138.048 261.049 138.149C262.557 141.909 264.266 145.584 266.168 149.16C266.195 149.201 266.263 149.16 266.243 149.16Z" fill="#263238"/>
<path d="M271.566 171.032C272.922 171.988 274.637 173.412 283.343 172.924C283.885 172.89 284.434 172.836 284.99 172.754C293.269 171.473 304.103 163.452 304.727 162.869C304.727 162.869 294.964 140.651 279.715 131.973C277.831 130.901 274.291 131.973 272.217 133.627C271.471 134.217 269.349 139.051 269.328 143.18C269.308 147.309 270.203 170.083 271.566 171.032Z" fill="#EBEBEB"/>
<path d="M276.508 143.77C276.627 144.193 276.684 144.632 276.677 145.072C276.685 145.509 276.628 145.946 276.508 146.367C276.391 145.945 276.334 145.509 276.338 145.072C276.334 144.632 276.391 144.194 276.508 143.77Z" fill="white"/>
<path d="M280.013 158.686C280.239 159.539 280.239 160.436 280.013 161.29C279.787 160.436 279.787 159.539 280.013 158.686Z" fill="white"/>
<path d="M290.861 149.458C291.087 150.312 291.087 151.209 290.861 152.062C290.635 151.209 290.635 150.312 290.861 149.458Z" fill="white"/>
<path d="M271.029 156.713C271.149 157.136 271.206 157.575 271.199 158.015C271.206 158.453 271.149 158.889 271.029 159.31C270.912 158.888 270.855 158.452 270.86 158.015C270.856 157.575 270.913 157.137 271.029 156.713Z" fill="white"/>
<path d="M284.663 146.753C284.24 146.873 283.801 146.93 283.361 146.923C282.924 146.93 282.487 146.873 282.066 146.753C282.488 146.638 282.924 146.58 283.361 146.584C283.801 146.58 284.239 146.637 284.663 146.753Z" fill="white"/>
<path d="M293.878 158.3C293.027 158.526 292.132 158.526 291.281 158.3C292.132 158.074 293.027 158.074 293.878 158.3Z" fill="white"/>
<path d="M279.87 167.466C279.019 167.692 278.124 167.692 277.273 167.466C278.124 167.24 279.019 167.24 279.87 167.466Z" fill="white"/>
<path d="M296.185 165.697C295.763 165.813 295.327 165.87 294.89 165.866C294.45 165.87 294.012 165.813 293.588 165.697C294.011 165.577 294.45 165.52 294.89 165.527C295.327 165.52 295.764 165.577 296.185 165.697Z" fill="white"/>
<path d="M277.926 134.204C277.502 134.323 277.064 134.38 276.624 134.373C276.184 134.384 275.745 134.326 275.322 134.204C276.175 133.978 277.073 133.978 277.926 134.204Z" fill="white"/>
<path d="M282.447 135.892C283.208 136.336 283.841 136.968 284.285 137.729C283.9 137.517 283.55 137.247 283.247 136.929C282.931 136.624 282.661 136.275 282.447 135.892Z" fill="white"/>
<path d="M295.98 150.374C296.741 150.818 297.374 151.45 297.818 152.211C297.053 151.772 296.419 151.138 295.98 150.374Z" fill="white"/>
<path d="M274.338 151.926C275.098 152.37 275.731 153.003 276.175 153.764C275.791 153.551 275.441 153.281 275.138 152.964C274.822 152.659 274.552 152.31 274.338 151.926Z" fill="white"/>
<path d="M286.752 162.388C287.133 162.605 287.483 162.874 287.789 163.188C288.106 163.493 288.375 163.842 288.589 164.225C288.208 164.011 287.858 163.744 287.552 163.432C287.24 163.122 286.971 162.77 286.752 162.388Z" fill="white"/>
<path d="M270.752 139.485C271.132 139.704 271.481 139.973 271.789 140.285C272.106 140.59 272.375 140.939 272.589 141.322C271.829 140.878 271.196 140.246 270.752 139.485Z" fill="white"/>
<path d="M269.654 149.458C269.871 149.077 270.14 148.727 270.454 148.421C270.762 148.109 271.111 147.84 271.492 147.621C271.278 148.006 271.008 148.358 270.692 148.665C270.385 148.977 270.036 149.244 269.654 149.458Z" fill="white"/>
<path d="M299.037 160.523C299.253 160.141 299.522 159.792 299.837 159.486C300.145 159.174 300.494 158.905 300.874 158.686C300.662 159.073 300.392 159.425 300.074 159.73C299.768 160.042 299.419 160.309 299.037 160.523Z" fill="white"/>
<path d="M271.254 164.958C271.698 164.197 272.331 163.564 273.091 163.12C272.877 163.506 272.608 163.857 272.291 164.164C271.985 164.476 271.635 164.743 271.254 164.958Z" fill="white"/>
<path d="M287.844 143.614C288.058 143.233 288.325 142.883 288.637 142.577C288.944 142.26 289.296 141.991 289.681 141.777C289.237 142.537 288.604 143.17 287.844 143.614Z" fill="white"/>
<path d="M283.729 171.419C283.943 171.035 284.212 170.686 284.529 170.381C284.837 170.069 285.186 169.8 285.566 169.581C285.354 169.966 285.084 170.316 284.766 170.619C284.461 170.935 284.112 171.205 283.729 171.419Z" fill="white"/>
<path d="M283.742 154.679C284.186 153.919 284.819 153.286 285.58 152.842C285.146 153.61 284.51 154.245 283.742 154.679Z" fill="white"/>
<path d="M274.427 139.485C276.536 139.39 279.071 135.417 279.709 132.569C279.263 131.212 278.747 129.879 278.163 128.576C277.668 127.294 277.146 125.864 276.759 124.508C276.685 124.23 275.885 125.01 275.885 125.01L274.264 125.925L268.908 128.962C269.869 130.506 270.636 132.161 271.193 133.891C271.245 134.077 271.279 134.268 271.295 134.461C271.295 134.461 271.295 134.522 271.295 134.556C271.437 135.661 272.386 139.573 274.427 139.485Z" fill="#DD6A57"/>
<path d="M271.295 134.468C271.295 134.468 271.295 134.529 271.295 134.563C271.594 134.524 271.89 134.456 272.176 134.359C277.817 132.617 276.468 125.193 276.468 125.193L274.251 125.932L268.895 128.969C269.855 130.513 270.622 132.168 271.179 133.898C271.236 134.084 271.275 134.275 271.295 134.468Z" fill="#263238"/>
<path d="M277.302 116.155C278.359 119.233 277.024 128.271 274.881 130.346C271.776 133.356 266.542 133.817 263.945 130.047C261.423 126.393 263.369 114.65 265.776 112.752C269.294 109.945 275.715 111.612 277.302 116.155Z" fill="#DD6A57"/>
<path d="M268.922 122.284C268.922 122.284 268.963 122.325 268.956 122.345C268.854 122.956 268.834 123.701 269.356 123.946C269.356 123.946 269.356 123.986 269.356 123.979C268.685 123.79 268.719 122.847 268.922 122.284Z" fill="#263238"/>
<path d="M269.552 121.728C270.542 121.796 270.339 123.762 269.423 123.708C268.508 123.654 268.725 121.674 269.552 121.728Z" fill="#263238"/>
<path d="M265.172 121.816C265.172 121.816 265.124 121.816 265.118 121.87C265.077 122.481 264.921 123.179 264.352 123.321V123.355C265.036 123.335 265.233 122.406 265.172 121.816Z" fill="#263238"/>
<path d="M264.691 121.125C263.715 120.949 263.437 122.915 264.339 123.078C265.24 123.24 265.512 121.267 264.691 121.125Z" fill="#263238"/>
<path d="M270.425 120.908C270.172 120.804 269.925 120.686 269.686 120.555C269.413 120.466 269.176 120.293 269.008 120.06C268.969 119.975 268.961 119.879 268.983 119.789C269.005 119.698 269.056 119.617 269.13 119.559C269.289 119.465 269.47 119.416 269.655 119.416C269.84 119.416 270.021 119.465 270.181 119.559C270.537 119.699 270.827 119.967 270.994 120.311C271.029 120.392 271.04 120.481 271.024 120.568C271.009 120.655 270.968 120.735 270.908 120.799C270.847 120.862 270.769 120.907 270.683 120.926C270.597 120.946 270.507 120.939 270.425 120.908Z" fill="#263238"/>
<path d="M264.033 120.047C264.304 120.023 264.573 119.982 264.84 119.925C265.128 119.924 265.407 119.826 265.633 119.647C265.689 119.573 265.719 119.482 265.719 119.389C265.719 119.296 265.689 119.206 265.633 119.132C265.505 118.996 265.343 118.897 265.165 118.845C264.986 118.793 264.797 118.789 264.616 118.833C264.24 118.865 263.889 119.037 263.633 119.315C263.575 119.384 263.539 119.469 263.53 119.558C263.521 119.648 263.539 119.739 263.582 119.818C263.625 119.897 263.692 119.961 263.772 120.002C263.852 120.043 263.943 120.059 264.033 120.047Z" fill="#263238"/>
<path d="M268.419 125.919C268.24 126.145 268.015 126.332 267.759 126.467C267.504 126.603 267.223 126.684 266.935 126.705C266.683 126.726 266.43 126.712 266.182 126.664H266.04L265.904 126.63C265.873 126.619 265.846 126.599 265.827 126.573C265.807 126.546 265.796 126.514 265.796 126.481C265.792 126.461 265.792 126.44 265.796 126.42V126.373C265.836 125.898 265.952 125.186 265.952 125.186C265.775 125.254 264.853 125.559 264.894 125.315C265.167 123.196 265.655 121.111 266.352 119.091C266.352 119.077 266.357 119.063 266.367 119.053C266.378 119.043 266.391 119.037 266.406 119.037C266.42 119.037 266.434 119.043 266.444 119.053C266.454 119.063 266.46 119.077 266.46 119.091C266.216 121.051 265.633 122.956 265.362 124.915C265.688 124.805 266.028 124.739 266.372 124.718C266.44 124.718 266.121 126.074 266.121 126.305C266.503 126.384 266.897 126.386 267.279 126.309C267.661 126.232 268.024 126.078 268.345 125.858C268.419 125.83 268.487 125.878 268.419 125.919Z" fill="#263238"/>
<path d="M266.453 126.454C266.679 126.817 266.994 127.116 267.368 127.322C267.578 127.428 267.815 127.466 268.046 127.431C268.548 127.356 268.602 126.908 268.555 126.515C268.527 126.306 268.474 126.102 268.399 125.905C267.826 126.291 267.144 126.484 266.453 126.454Z" fill="#263238"/>
<path d="M267.395 127.322C267.604 127.428 267.841 127.465 268.073 127.43C268.574 127.356 268.629 126.908 268.581 126.515C268.321 126.494 268.062 126.563 267.846 126.71C267.63 126.856 267.471 127.072 267.395 127.322Z" fill="#FF99BA"/>
<path d="M276.488 123.695C274.936 123.559 275.194 119.749 275.194 119.749C275.194 119.749 272.827 119.254 271.756 115.952C271.756 115.952 268.637 117.789 266.081 117.247C262.081 116.399 262.339 111.145 263.878 110.148C266.054 108.704 269.797 111.009 269.797 111.009C269.797 111.009 275.594 109.572 277.194 113.518C277.937 113.591 278.625 113.945 279.119 114.506C279.612 115.067 279.874 115.795 279.851 116.542C279.946 119.383 277.648 123.796 276.488 123.695Z" fill="#263238"/>
<path d="M275.736 120.209C274.586 119.978 273.545 119.37 272.78 118.48C272.371 117.998 272.083 117.423 271.942 116.806C271.8 116.19 271.809 115.548 271.966 114.935C271.962 114.924 271.955 114.915 271.946 114.909C271.937 114.903 271.926 114.899 271.915 114.899C271.904 114.899 271.894 114.903 271.884 114.909C271.875 114.915 271.868 114.924 271.865 114.935C271.665 115.574 271.609 116.249 271.701 116.912C271.792 117.576 272.029 118.211 272.393 118.772C272.761 119.306 273.263 119.733 273.849 120.01C274.435 120.287 275.083 120.405 275.729 120.352C275.748 120.353 275.767 120.346 275.781 120.333C275.795 120.321 275.803 120.303 275.804 120.284C275.805 120.265 275.798 120.247 275.785 120.233C275.773 120.219 275.755 120.21 275.736 120.209Z" fill="#263238"/>
<path d="M280.108 114.887C279.342 113.857 278.135 113.667 276.942 113.674C276.874 113.674 276.874 113.789 276.942 113.782C277.538 113.777 278.124 113.932 278.64 114.232C279.155 114.531 279.58 114.964 279.871 115.484C280.105 115.975 280.239 116.509 280.263 117.053C280.288 117.597 280.203 118.14 280.013 118.65C279.5 120.653 278.26 122.392 276.535 123.532C276.535 123.532 276.535 123.6 276.535 123.579C277.515 123.001 278.367 122.23 279.039 121.311C279.711 120.392 280.187 119.346 280.44 118.237C280.691 117.159 280.807 115.837 280.108 114.887Z" fill="#263238"/>
<path d="M269.946 111.192C269.464 110.362 268.695 109.737 267.783 109.436C266.675 109.101 265.482 109.188 264.434 109.68C264.016 109.887 263.661 110.202 263.405 110.592C263.149 110.981 263.001 111.432 262.976 111.897C262.947 112.98 263.289 114.04 263.946 114.901C263.946 114.901 264 114.901 263.987 114.901C263.464 114.095 263.204 113.148 263.241 112.189C263.265 111.73 263.418 111.287 263.683 110.911C263.948 110.536 264.314 110.243 264.739 110.067C266.414 109.389 268.807 109.572 269.858 111.28C269.892 111.321 269.98 111.26 269.946 111.192Z" fill="#263238"/>
<path d="M275.606 123.539C275.606 123.539 277.593 120.61 278.922 121.315C280.251 122.02 278.786 126.251 277.247 126.847C277.055 126.937 276.847 126.987 276.635 126.995C276.423 127.002 276.211 126.967 276.013 126.891C275.815 126.815 275.635 126.7 275.482 126.553C275.329 126.405 275.208 126.229 275.125 126.034L275.606 123.539Z" fill="#DD6A57"/>
<path d="M173.898 184.904H256.275V127.22H173.898V184.904Z" fill="#263238"/>
<path d="M190.349 150.441C194.12 150.441 197.176 147.385 197.176 143.614C197.176 139.843 194.12 136.786 190.349 136.786C186.578 136.786 183.521 139.843 183.521 143.614C183.521 147.385 186.578 150.441 190.349 150.441Z" fill="#0D5FAA"/>
<path d="M210.471 172.354H256.283L233.374 141.302L210.471 172.354Z" fill="#C7C7C7"/>
<path d="M192.518 172.497H230.336L211.427 152.286L192.518 172.497Z" fill="white"/>
<path d="M256.27 172.47H173.893V184.897H256.27V172.47Z" fill="#0D5FAA"/>
<path d="M285.037 138.99C287.173 144.963 284.122 166.876 280.508 171.493C275.145 178.368 264.548 184.694 260.493 186.667C258.731 187.528 250.791 174.843 252.52 173.656C256.229 171.107 268.073 165.032 269.077 163.825C270.08 162.618 275.477 151.025 277.64 144.496C280.542 135.736 283.959 135.96 285.037 138.99Z" fill="#DD6A57"/>
<path d="M260.488 186.701C254.867 189.908 243.687 189.413 242.182 188.965C240.887 188.579 240.215 188.362 240.215 188.362C237.87 187.684 237.239 186.403 237.239 186.403C237.239 186.403 234.303 186.443 233.985 184.667C233.625 182.687 237.815 183.019 240.236 181.792C245.782 178.985 252.88 173.439 254.399 172.47L260.488 186.701Z" fill="#DD6A57"/>
<path d="M248.1 182.931C246.487 183.776 244.817 184.508 243.103 185.121C241.187 185.672 239.234 186.083 237.258 186.349C237.246 186.349 237.234 186.354 237.225 186.362C237.216 186.371 237.211 186.383 237.211 186.396C237.211 186.409 237.216 186.421 237.225 186.43C237.234 186.438 237.246 186.443 237.258 186.443C241.129 186.33 244.894 185.16 248.147 183.06C248.155 183.049 248.161 183.037 248.163 183.023C248.165 183.009 248.163 182.996 248.159 182.983C248.154 182.97 248.146 182.959 248.136 182.95C248.125 182.941 248.113 182.934 248.1 182.931Z" fill="#263238"/>
<path d="M250.277 186.037C247.077 187.382 243.663 188.148 240.195 188.301C240.195 188.301 240.195 188.301 240.195 188.301C243.717 188.547 247.238 187.81 250.365 186.172C250.44 186.152 250.392 185.989 250.277 186.037Z" fill="#263238"/>
<path d="M246.682 177.989C247.259 177.311 246.926 177.026 245.401 177.311C243.875 177.596 238.085 179.975 237.421 177.887C236.756 175.799 244.981 172.545 247.55 172.273C249.873 172.154 252.202 172.222 254.513 172.477C253.042 173.426 249.55 176.077 246.682 177.989Z" fill="#DD6A57"/>
<path d="M279.063 140.481C282.812 132.603 286.229 134.691 286.521 142.515C286.635 147.931 286.395 153.349 285.802 158.733L272.242 154.842L279.063 140.481Z" fill="#EBEBEB"/>
<path d="M276.508 143.77C276.627 144.193 276.684 144.632 276.677 145.072C276.685 145.509 276.628 145.946 276.508 146.367C276.391 145.945 276.334 145.509 276.338 145.072C276.334 144.632 276.391 144.194 276.508 143.77Z" fill="white"/>
<path d="M284.663 146.753C284.24 146.873 283.801 146.93 283.361 146.923C282.924 146.93 282.487 146.873 282.066 146.753C282.488 146.638 282.924 146.58 283.361 146.584C283.801 146.58 284.239 146.637 284.663 146.753Z" fill="white"/>
<path d="M282.447 135.892C283.208 136.336 283.841 136.968 284.285 137.729C283.9 137.517 283.55 137.247 283.247 136.929C282.931 136.624 282.661 136.275 282.447 135.892Z" fill="white"/>
<path d="M274.338 151.926C275.098 152.37 275.731 153.003 276.175 153.764C275.791 153.551 275.441 153.281 275.138 152.964C274.822 152.659 274.552 152.31 274.338 151.926Z" fill="white"/>
<path d="M283.742 154.679C284.186 153.919 284.819 153.286 285.58 152.842C285.146 153.61 284.51 154.245 283.742 154.679Z" fill="white"/>
<path d="M277.769 142.889C277.26 143.919 276.725 144.923 276.189 145.96C276.284 145.472 276.359 144.99 276.413 144.496H276.379C276.297 144.882 276.209 145.262 276.135 145.648L276.033 146.204C276.03 146.245 276.03 146.286 276.033 146.326C275.619 147.119 275.206 147.919 274.819 148.726C274.352 149.689 273.911 150.659 273.463 151.635C273.016 152.611 272.602 153.798 272.107 154.781C272.534 154.955 272.977 155.087 273.43 155.174C273.552 155.222 273.613 155.099 273.484 155.086C273.355 155.072 272.352 154.659 272.338 154.652C272.779 153.669 273.335 152.74 273.809 151.777C274.284 150.815 274.758 149.859 275.206 148.882C276.128 146.909 276.935 144.889 277.843 142.909C277.816 142.875 277.776 142.862 277.769 142.889Z" fill="#263238"/>
<path d="M287.125 147.581C286.996 147.988 286.854 148.388 286.752 148.801L286.63 149.31C286.678 147.899 286.725 146.496 286.766 145.086C286.576 147.384 286.373 149.683 286.224 151.988C286.01 154.194 285.908 156.409 285.918 158.625C285.511 158.526 285.096 158.461 284.678 158.429C285.123 158.625 285.593 158.759 286.074 158.829C286.354 156.529 286.514 154.216 286.556 151.9C286.556 151.262 286.603 150.632 286.63 150.001C286.705 149.608 286.813 149.221 286.922 148.835C287.03 148.449 287.105 148.008 287.193 147.594C287.173 147.567 287.132 147.56 287.125 147.581Z" fill="#263238"/>
<path d="M285.274 156.618C283.362 155.94 275.436 153.438 273.687 153.011C273.565 152.977 273.517 153.011 273.64 153.093C277.44 154.503 281.315 155.704 285.247 156.693C285.256 156.694 285.265 156.692 285.273 156.687C285.281 156.682 285.287 156.675 285.29 156.666C285.293 156.658 285.294 156.648 285.291 156.64C285.288 156.631 285.282 156.623 285.274 156.618Z" fill="#263238"/>
<path d="M214.985 136.895C216.856 137.464 216.463 134.929 216.463 134.929C216.463 134.929 217.914 138.441 220.077 138.319C222.24 138.197 221.568 135.112 221.534 134.895C221.609 135.078 223.033 138.285 225.189 137.892C227.345 137.498 226.314 134.502 226.24 134.346C226.369 134.495 228.111 136.475 229.677 135.81C232.389 134.671 228.07 129.491 228.382 127.138L232.179 127.254C232.301 127.254 232.43 127.254 232.552 127.193L232.694 125.254C231.481 124.76 230.309 124.171 229.189 123.491C227.759 122.691 226.375 121.959 225.352 121.938C224.89 121.913 224.432 122.038 224.046 122.293C223.661 122.548 223.367 122.92 223.209 123.355C223.209 123.355 222.097 121.592 220.389 121.843C219.514 121.972 218.945 123.491 218.945 123.491C218.673 123.105 218.3 122.802 217.867 122.616C217.433 122.429 216.957 122.366 216.49 122.433C215.29 122.677 214.897 124.162 214.897 124.162C214.897 124.162 213.378 123.267 212.232 123.918C209.92 125.193 210.971 135.661 214.985 136.895Z" fill="#DD6A57"/>
<path d="M228.871 126.915L232.18 127.22C232.302 127.22 232.431 127.22 232.553 127.159C236.729 126.4 239.333 121.627 236.302 121.281C233.997 121.017 231.515 124.068 229.19 123.457L228.871 126.915Z" fill="#DD6A57"/>
<path d="M218.918 123.396C218.918 123.355 218.85 123.355 218.843 123.396C218.3 127.441 219.224 131.547 221.447 134.969C221.528 135.085 221.718 135.112 221.637 134.969C220.233 132.59 218.992 126.786 218.918 123.396Z" fill="#263238"/>
<path d="M226.485 134.495C224.35 131.105 223.502 127.41 223.183 123.471C223.183 123.417 223.109 123.43 223.095 123.471C222.729 125.444 223.197 127.932 223.719 129.837C224.175 131.623 225.088 133.259 226.37 134.583C226.451 134.617 226.533 134.563 226.485 134.495Z" fill="#263238"/>
</svg>
