<svg width="339" height="339" viewBox="0 0 339 339" fill="none" xmlns="http://www.w3.org/2000/svg">
<path d="M339 259.267H0V259.436H339V259.267Z" fill="#EBEBEB"/>
<path d="M305.033 270.176H282.578V270.346H305.033V270.176Z" fill="#EBEBEB"/>
<path d="M224.568 272.021H218.676V272.19H224.568V272.021Z" fill="#EBEBEB"/>
<path d="M281.9 263.885H268.889V264.054H281.9V263.885Z" fill="#EBEBEB"/>
<path d="M64.8492 265.024H35.5664V265.193H64.8492V265.024Z" fill="#EBEBEB"/>
<path d="M75.1824 265.024H70.8906V265.193H75.1824V265.024Z" fill="#EBEBEB"/>
<path d="M152.652 267.884H89.1367V268.054H152.652V267.884Z" fill="#EBEBEB"/>
<path d="M160.686 229.028H29.7709C28.7453 229.027 27.7623 228.618 27.0378 227.892C26.3132 227.166 25.9062 226.183 25.9063 225.157V41.1275C25.9152 40.1078 26.3261 39.1328 27.0497 38.4143C27.7733 37.6958 28.7511 37.2918 29.7709 37.29H160.686C161.713 37.29 162.697 37.6979 163.423 38.4239C164.149 39.15 164.557 40.1347 164.557 41.1614V225.157C164.557 226.184 164.149 227.169 163.423 227.895C162.697 228.621 161.713 229.028 160.686 229.028ZM29.7709 37.4256C28.7902 37.4274 27.8504 37.8182 27.1576 38.5123C26.4648 39.2063 26.0757 40.1469 26.0758 41.1275V225.157C26.0757 226.138 26.4648 227.078 27.1576 227.772C27.8504 228.466 28.7902 228.857 29.7709 228.859H160.686C161.667 228.857 162.608 228.467 163.302 227.773C163.995 227.079 164.386 226.138 164.388 225.157V41.1275C164.386 40.1463 163.995 39.2057 163.302 38.5119C162.608 37.818 161.667 37.4274 160.686 37.4256H29.7709Z" fill="#EBEBEB"/>
<path d="M307.344 229.028H176.422C175.396 229.027 174.412 228.618 173.687 227.893C172.961 227.167 172.553 226.183 172.551 225.157V41.1275C172.561 40.1072 172.974 39.1322 173.699 38.4139C174.423 37.6956 175.402 37.2918 176.422 37.29H307.344C308.363 37.2936 309.339 37.6984 310.061 38.4167C310.783 39.135 311.193 40.109 311.202 41.1275V225.157C311.202 226.181 310.796 227.164 310.073 227.89C309.35 228.615 308.368 229.025 307.344 229.028ZM176.422 37.4256C175.441 37.4274 174.5 37.818 173.807 38.5119C173.113 39.2057 172.722 40.1463 172.72 41.1275V225.157C172.722 226.138 173.113 227.079 173.807 227.773C174.5 228.467 175.441 228.857 176.422 228.859H307.344C308.325 228.857 309.266 228.467 309.96 227.773C310.653 227.079 311.044 226.138 311.046 225.157V41.1275C311.044 40.1463 310.653 39.2057 309.96 38.5119C309.266 37.818 308.325 37.4274 307.344 37.4256H176.422Z" fill="#EBEBEB"/>
<path d="M315.064 174.209L310.879 172.894L287.889 246.077L292.074 247.392L315.064 174.209Z" fill="#E0E0E0"/>
<path d="M303.35 170.468L299.062 169.543L282.878 244.525L287.166 245.451L303.35 170.468Z" fill="#E0E0E0"/>
<path d="M295.28 176.979L290.926 177.512L300.248 253.652L304.602 253.119L295.28 176.979Z" fill="#EBEBEB"/>
<path d="M305.676 220.438H273.295V259.355H305.676V220.438Z" fill="#F5F5F5"/>
<path d="M289.065 220.438H260.752V259.355H289.065V220.438Z" fill="#E0E0E0"/>
<path d="M164.352 206.45L120.711 215.377L129.637 259.018L173.278 250.091L164.352 206.45Z" fill="#E0E0E0"/>
<path d="M171.074 239.395L173.264 250.114L129.622 259.037L125.174 237.273L132.584 227.523L148.66 237.856L154.64 231.245L171.074 239.395Z" fill="#F0F0F0"/>
<path d="M159.858 217.991C160.053 218.942 159.961 219.929 159.595 220.828C159.229 221.727 158.604 222.497 157.8 223.041C156.996 223.585 156.049 223.878 155.078 223.884C154.107 223.89 153.157 223.607 152.346 223.073C151.536 222.538 150.903 221.776 150.526 220.881C150.149 219.987 150.046 219 150.229 218.047C150.413 217.094 150.875 216.217 151.557 215.526C152.239 214.835 153.111 214.362 154.061 214.167C154.693 214.037 155.344 214.033 155.978 214.155C156.611 214.277 157.214 214.523 157.752 214.878C158.291 215.233 158.754 215.691 159.115 216.225C159.476 216.759 159.729 217.359 159.858 217.991Z" fill="#F0F0F0"/>
<path d="M105.089 185.094L95.414 259.674H20.834L30.509 185.094H105.089Z" fill="#E0E0E0"/>
<path d="M97.787 241.273L95.414 259.674H20.834L25.6546 222.486L42.8351 208.953L62.8429 231.15L76.0096 222.418L97.787 241.273Z" fill="#F0F0F0"/>
<path d="M88.561 208.085C92.1428 204.844 92.7388 199.667 89.8924 196.521C87.0459 193.375 81.8347 193.452 78.253 196.693C74.6712 199.934 74.0751 205.111 76.9216 208.257C79.7681 211.403 84.9792 211.326 88.561 208.085Z" fill="#F0F0F0"/>
<path d="M210.696 234.323H178.314V259.348H210.696V234.323Z" fill="#F0F0F0"/>
<path d="M194.085 234.323H165.771V259.348H194.085V234.323Z" fill="#E0E0E0"/>
<path d="M186.992 223.205L181.649 221.849C180.293 221.516 178.842 222.072 178.51 223.415L177.629 226.954C177.296 228.31 178.341 229.408 179.663 229.74L181.764 230.269V232.669L182.89 230.547L184.998 231.069C186.354 231.408 187.792 230.913 188.124 229.571L188.999 226.032C189.372 224.716 188.341 223.537 186.992 223.205Z" fill="#E0E0E0"/>
<path d="M232.418 248.969L227.075 247.613C225.719 247.28 224.268 247.836 223.936 249.179L223.054 252.718C222.722 254.074 223.766 255.172 225.088 255.505L227.19 256.033V258.434L228.316 256.311L230.424 256.833C231.78 257.172 233.218 256.678 233.55 255.335L234.424 251.796C234.797 250.481 233.767 249.301 232.418 248.969Z" fill="#E0E0E0"/>
<path d="M192.98 210.37C190.227 209.19 188.62 212.601 188.62 212.601C188.62 212.601 185.271 210.865 183.8 213.475C181.691 217.204 187.719 220.553 191.258 220.431C194.166 218.37 196.919 212.051 192.98 210.37Z" fill="#E0E0E0"/>
<path d="M115.687 246.982C112.934 245.802 111.327 249.213 111.327 249.213C111.327 249.213 107.978 247.477 106.507 250.087C104.398 253.816 110.426 257.166 113.965 257.043C116.873 254.982 119.626 248.663 115.687 246.982Z" fill="#E0E0E0"/>
<path d="M202.186 230.337L199.48 226.601L195.094 228.031L198.335 218.078L205.426 220.384L202.186 230.337Z" fill="#E0E0E0"/>
<path d="M169.5 289.886C242.102 289.886 300.958 286.45 300.958 282.211C300.958 277.972 242.102 274.536 169.5 274.536C96.8985 274.536 38.043 277.972 38.043 282.211C38.043 286.45 96.8985 289.886 169.5 289.886Z" fill="#F5F5F5"/>
<path d="M271.485 68.3765H67.5159C65.0521 68.3765 63.0547 70.3738 63.0547 72.8377V198.329C63.0547 200.793 65.0521 202.79 67.5159 202.79H271.485C273.949 202.79 275.947 200.793 275.947 198.329V72.8377C275.947 70.3738 273.949 68.3765 271.485 68.3765Z" fill="#0D5FAA"/>
<path opacity="0.6" d="M271.485 68.3765H67.5159C65.0521 68.3765 63.0547 70.3738 63.0547 72.8377V198.329C63.0547 200.793 65.0521 202.79 67.5159 202.79H271.485C273.949 202.79 275.947 200.793 275.947 198.329V72.8377C275.947 70.3738 273.949 68.3765 271.485 68.3765Z" fill="white"/>
<path d="M171.534 75.9358H69.834V176.958H171.534V75.9358Z" fill="#0D5FAA"/>
<path opacity="0.3" d="M171.534 75.9358H69.834V176.958H171.534V75.9358Z" fill="white"/>
<path d="M171.534 152.082V176.958H69.834V126.454L90.7842 108.114L121.891 138.454L138.42 126.447L171.534 152.082Z" fill="#0D5FAA"/>
<path d="M144.719 110.446C150.879 110.446 155.873 105.453 155.873 99.293C155.873 93.1333 150.879 88.1399 144.719 88.1399C138.56 88.1399 133.566 93.1333 133.566 99.293C133.566 105.453 138.56 110.446 144.719 110.446Z" fill="#0D5FAA"/>
<path opacity="0.2" d="M171.534 152.082V176.958H69.834V126.454L90.7842 108.114L121.891 138.454L138.42 126.447L171.534 152.082Z" fill="white"/>
<path opacity="0.2" d="M144.719 110.446C150.879 110.446 155.873 105.453 155.873 99.293C155.873 93.1333 150.879 88.1399 144.719 88.1399C138.56 88.1399 133.566 93.1333 133.566 99.293C133.566 105.453 138.56 110.446 144.719 110.446Z" fill="white"/>
<path d="M122.759 185.094H117.253C115.897 185.094 114.582 185.989 114.582 187.379V191.02C114.582 192.376 115.87 193.23 117.253 193.23H119.423L120.006 195.562L120.589 193.23H122.759C124.115 193.23 125.43 192.403 125.43 191.02V187.379C125.43 185.989 124.142 185.094 122.759 185.094Z" fill="#0D5FAA"/>
<path d="M147.805 185.264C145.575 183.264 142.958 185.976 142.958 185.976C142.958 185.976 140.347 183.264 138.11 185.264C134.923 188.118 139.554 193.224 142.958 194.247C146.334 193.23 150.965 188.118 147.805 185.264Z" fill="#0D5FAA"/>
<path d="M169.501 194.884L165.772 192.172L162.043 194.884V184.416H169.501V194.884Z" fill="#0D5FAA"/>
<path d="M201.822 75.9358H185.251C184.023 75.9358 183.027 76.9314 183.027 78.1596V94.73C183.027 95.9581 184.023 96.9538 185.251 96.9538H201.822C203.05 96.9538 204.045 95.9581 204.045 94.73V78.1596C204.045 76.9314 203.05 75.9358 201.822 75.9358Z" fill="#0D5FAA"/>
<path d="M252.677 76.2415H210.221V80.9874H252.677V76.2415Z" fill="#0D5FAA"/>
<path d="M225.273 105.741H182.816V110.487H225.273V105.741Z" fill="#0D5FAA"/>
<path d="M262.759 116.921H182.816V121.667H262.759V116.921Z" fill="#0D5FAA"/>
<path d="M259.119 125.803H182.816V130.549H259.119V125.803Z" fill="#0D5FAA"/>
<path d="M262.759 134.678H182.816V139.424H262.759V134.678Z" fill="#0D5FAA"/>
<path d="M241.538 143.56H182.816V148.306H241.538V143.56Z" fill="#0D5FAA"/>
<path d="M258.657 76.1055L259.294 77.4005L260.718 77.6039L259.687 78.6073L259.931 80.0311L258.657 79.3599L257.382 80.0311L257.626 78.6073L256.596 77.6039L258.02 77.4005L258.657 76.1055Z" fill="#0D5FAA"/>
<path d="M251.538 166.53C251.538 166.748 251.474 166.96 251.353 167.141C251.232 167.322 251.06 167.463 250.859 167.546C250.658 167.629 250.437 167.65 250.223 167.607C250.01 167.564 249.814 167.459 249.661 167.304C249.508 167.15 249.404 166.954 249.362 166.74C249.32 166.527 249.343 166.306 249.427 166.105C249.512 165.905 249.653 165.734 249.835 165.614C250.016 165.494 250.229 165.431 250.447 165.432C250.591 165.432 250.733 165.46 250.866 165.516C250.999 165.571 251.12 165.652 251.221 165.754C251.323 165.856 251.403 165.977 251.457 166.11C251.512 166.244 251.539 166.386 251.538 166.53Z" fill="#0D5FAA"/>
<path d="M256.962 166.53C256.961 166.746 256.896 166.956 256.775 167.135C256.654 167.313 256.483 167.452 256.284 167.534C256.084 167.615 255.865 167.636 255.654 167.593C255.442 167.55 255.249 167.446 255.097 167.293C254.945 167.14 254.841 166.945 254.8 166.734C254.758 166.522 254.78 166.303 254.863 166.104C254.946 165.905 255.086 165.735 255.265 165.615C255.444 165.496 255.655 165.432 255.871 165.432C256.015 165.432 256.157 165.46 256.29 165.516C256.423 165.571 256.544 165.652 256.645 165.754C256.747 165.856 256.827 165.977 256.881 166.11C256.936 166.244 256.963 166.386 256.962 166.53Z" fill="#0D5FAA"/>
<path d="M262.386 166.53C262.386 166.748 262.322 166.96 262.201 167.141C262.08 167.322 261.908 167.463 261.707 167.546C261.505 167.629 261.284 167.65 261.071 167.607C260.858 167.564 260.662 167.459 260.509 167.304C260.355 167.15 260.251 166.954 260.21 166.74C260.168 166.527 260.191 166.306 260.275 166.105C260.359 165.905 260.501 165.734 260.683 165.614C260.864 165.494 261.077 165.431 261.295 165.432C261.439 165.432 261.581 165.46 261.714 165.516C261.847 165.571 261.967 165.652 262.069 165.754C262.17 165.856 262.251 165.977 262.305 166.11C262.36 166.244 262.387 166.386 262.386 166.53Z" fill="#0D5FAA"/>
<g opacity="0.3">
<path opacity="0.3" d="M122.759 185.094H117.253C115.897 185.094 114.582 185.989 114.582 187.379V191.019C114.582 192.375 115.87 193.23 117.253 193.23H119.423L120.006 195.562L120.589 193.23H122.759C124.115 193.23 125.43 192.403 125.43 191.019V187.379C125.43 185.989 124.142 185.094 122.759 185.094Z" fill="white"/>
<path opacity="0.3" d="M147.805 185.263C145.575 183.263 142.958 185.975 142.958 185.975C142.958 185.975 140.347 183.263 138.11 185.263C134.923 188.118 139.554 193.223 142.958 194.247C146.334 193.23 150.965 188.118 147.805 185.263Z" fill="white"/>
<path opacity="0.3" d="M169.501 194.884L165.772 192.172L162.043 194.884V184.416H169.501V194.884Z" fill="white"/>
<path opacity="0.3" d="M201.822 75.9358H185.251C184.023 75.9358 183.027 76.9314 183.027 78.1596V94.73C183.027 95.9581 184.023 96.9538 185.251 96.9538H201.822C203.05 96.9538 204.045 95.9581 204.045 94.73V78.1596C204.045 76.9314 203.05 75.9358 201.822 75.9358Z" fill="white"/>
<path opacity="0.3" d="M252.677 76.2407H210.221V80.9867H252.677V76.2407Z" fill="white"/>
<path opacity="0.3" d="M225.273 105.741H182.816V110.487H225.273V105.741Z" fill="white"/>
<path opacity="0.3" d="M262.759 116.921H182.816V121.667H262.759V116.921Z" fill="white"/>
<path opacity="0.3" d="M259.119 125.803H182.816V130.549H259.119V125.803Z" fill="white"/>
<path opacity="0.3" d="M262.759 134.678H182.816V139.424H262.759V134.678Z" fill="white"/>
<path opacity="0.3" d="M241.538 143.559H182.816V148.305H241.538V143.559Z" fill="white"/>
<path opacity="0.3" d="M258.657 76.1052L259.294 77.4002L260.718 77.6036L259.687 78.6071L259.931 80.0309L258.657 79.3596L257.382 80.0309L257.626 78.6071L256.596 77.6036L258.02 77.4002L258.657 76.1052Z" fill="white"/>
<path opacity="0.3" d="M251.539 166.53C251.539 166.748 251.474 166.96 251.353 167.141C251.232 167.322 251.06 167.462 250.859 167.545C250.658 167.628 250.437 167.65 250.223 167.607C250.01 167.564 249.814 167.459 249.661 167.304C249.508 167.15 249.404 166.954 249.362 166.74C249.32 166.527 249.343 166.306 249.427 166.105C249.512 165.904 249.653 165.733 249.835 165.613C250.016 165.494 250.229 165.43 250.447 165.432C250.591 165.432 250.733 165.46 250.866 165.515C250.999 165.571 251.12 165.652 251.221 165.754C251.323 165.856 251.403 165.977 251.457 166.11C251.512 166.243 251.539 166.386 251.539 166.53Z" fill="white"/>
<path opacity="0.3" d="M256.962 166.53C256.961 166.746 256.896 166.956 256.775 167.135C256.654 167.313 256.484 167.452 256.284 167.534C256.084 167.615 255.865 167.636 255.654 167.593C255.442 167.55 255.249 167.446 255.097 167.293C254.945 167.14 254.841 166.946 254.8 166.734C254.758 166.522 254.78 166.303 254.863 166.104C254.946 165.905 255.086 165.735 255.265 165.615C255.444 165.496 255.655 165.432 255.871 165.432C256.015 165.432 256.157 165.46 256.29 165.516C256.423 165.571 256.544 165.652 256.645 165.754C256.747 165.856 256.827 165.977 256.881 166.11C256.936 166.244 256.963 166.386 256.962 166.53Z" fill="white"/>
<path opacity="0.3" d="M262.386 166.53C262.386 166.748 262.322 166.96 262.201 167.141C262.08 167.322 261.908 167.462 261.707 167.545C261.505 167.628 261.284 167.65 261.071 167.607C260.858 167.564 260.662 167.459 260.509 167.304C260.355 167.15 260.251 166.954 260.21 166.74C260.168 166.527 260.191 166.306 260.275 166.105C260.359 165.904 260.501 165.733 260.683 165.613C260.864 165.494 261.077 165.43 261.295 165.432C261.439 165.432 261.581 165.46 261.714 165.515C261.847 165.571 261.967 165.652 262.069 165.754C262.17 165.856 262.251 165.977 262.305 166.11C262.36 166.243 262.387 166.386 262.386 166.53Z" fill="white"/>
</g>
<path opacity="0.1" d="M272.556 123.511C270.257 123.64 268.528 123.81 268.528 123.81C266.352 124.332 263.721 127.078 263.721 127.078C263.721 127.078 263.918 128.013 264.318 129.308C262.026 132.02 259.253 134.732 257.253 134.922C253.714 135.302 240.69 121.999 237.456 118.65C237.416 117.747 237.278 116.851 237.042 115.979L251.958 110.704C252.513 110.507 252.968 110.099 253.222 109.567C253.476 109.036 253.509 108.425 253.314 107.87L250.534 99.9847C250.338 99.4294 249.929 98.9748 249.398 98.7206C248.866 98.4664 248.256 98.4333 247.7 98.6287L237.184 102.344V102.263L231.706 104.195V104.276L223.808 107.07V106.988L203.034 114.324C202.462 114.538 201.993 114.96 201.721 115.507C201.449 116.053 201.395 116.682 201.569 117.267L204.356 125.152C204.587 125.711 205.024 126.16 205.577 126.406C206.129 126.652 206.755 126.677 207.325 126.474L218.512 122.521L226.689 119.633L229.401 118.664C229.401 119.457 229.564 120.128 229.889 120.352C230.567 120.826 233.32 121.159 234.778 121.233C236.92 123.945 243.002 131.471 248.48 136.583C248.412 136.689 248.353 136.8 248.304 136.915L245.165 144.665C244.966 145.237 244.997 145.864 245.249 146.415C245.502 146.966 245.957 147.398 246.521 147.621L257.518 152.075L265.559 155.33L267.41 156.076C267.406 156.114 267.406 156.153 267.41 156.191H267.227V159.974H267.484C266.901 163.066 266.44 167.012 266.128 169.907L265.24 176.958L261.24 197.603H270.956C271.538 197.61 272.117 197.502 272.657 197.284C273.198 197.066 273.69 196.743 274.105 196.334C274.519 195.925 274.849 195.437 275.074 194.9C275.3 194.363 275.416 193.786 275.417 193.203V97.7744C271.071 102.507 269.667 112.873 272.556 123.511ZM266.969 141.98L261.965 139.946C263.726 138.968 265.404 137.847 266.983 136.597C266.955 138.197 266.949 139.98 266.969 141.98Z" fill="black"/>
<path d="M290.184 96.7503C290.184 96.7503 287.472 91.7535 279.94 93.6247C271.648 95.6587 268.665 112.107 274.923 127.233C281.181 142.359 294.388 140.312 295.154 133.145C295.92 125.979 294.252 117.972 294.93 109.836C295.608 101.7 292.625 97.0825 290.184 96.7503Z" fill="#263238"/>
<path d="M269.057 122.128C269.057 122.128 261.836 132.806 257.782 133.24C253.727 133.674 237.259 116.189 237.259 116.189L234.547 118.514C234.547 118.514 250.249 138.956 256.541 139.898C262.833 140.841 274.813 128.372 274.813 128.372L269.057 122.128Z" fill="#EBB376"/>
<path d="M269.057 122.128C266.881 122.65 264.25 125.396 264.25 125.396C264.25 125.396 265.938 133.464 269.674 135.125C273.41 136.786 269.057 122.128 269.057 122.128Z" fill="#0D5FAA"/>
<path d="M248.697 272.203L253.104 272.983L254.908 266.969L256.562 261.45L251.477 259.68L249.999 266.304L248.697 272.203Z" fill="#E4897B"/>
<path d="M254.094 272.861C254.169 272.373 248.135 271.701 248.135 271.701C248.135 271.701 243.802 274.793 240.087 274.997C236.371 275.2 237.985 277.709 241.972 278.386L251.837 280.129C254.671 280.651 253.328 277.919 254.094 272.861Z" fill="#263238"/>
<path d="M244.224 272.441C244.152 272.342 244.113 272.224 244.113 272.102C244.113 271.98 244.152 271.861 244.224 271.763C244.263 271.682 244.318 271.61 244.385 271.55C244.453 271.491 244.532 271.446 244.617 271.417C245.068 271.322 245.537 271.353 245.973 271.505C245.532 271.159 245.159 270.773 245.2 270.454C245.2 270.251 245.383 270.102 245.681 270.02C245.811 269.983 245.947 269.973 246.08 269.993C246.214 270.013 246.341 270.062 246.454 270.136C246.995 270.615 247.355 271.266 247.471 271.98C247.475 271.941 247.475 271.903 247.471 271.864L246.875 272.237V272.556H247.322C247.322 272.556 247.39 272.454 247.369 272.468V272.42C246.67 272.611 245.951 272.72 245.227 272.746C245.048 272.772 244.865 272.759 244.691 272.706C244.518 272.653 244.358 272.563 244.224 272.441ZM244.691 271.729C244.646 271.743 244.604 271.767 244.567 271.799C244.531 271.83 244.502 271.869 244.481 271.912C244.379 272.136 244.44 272.21 244.481 272.231C244.718 272.515 245.871 272.38 246.814 272.163C246.163 271.878 245.159 271.559 244.691 271.729ZM245.735 270.373C245.647 270.373 245.498 270.447 245.491 270.536C245.457 270.807 246.23 271.417 247.058 271.892C246.951 271.331 246.672 270.819 246.258 270.427C246.159 270.362 246.044 270.327 245.925 270.325C245.861 270.323 245.797 270.33 245.735 270.346V270.373Z" fill="#0D5FAA"/>
<path opacity="0.2" d="M249.979 266.447L254.887 267.091L256.548 261.511L251.47 259.708L249.979 266.447Z" fill="black"/>
<path d="M278.121 273.912H282.596L283.335 267.769L283.999 262.094L278.684 261.254L278.386 267.959L278.121 273.912Z" fill="#E4897B"/>
<path d="M283.559 273.803C283.559 273.308 277.457 273.695 277.457 273.695C277.457 273.695 273.728 277.491 270.1 278.346C266.473 279.2 268.527 281.37 272.555 281.37H282.569C285.477 281.37 283.674 278.915 283.559 273.803Z" fill="#263238"/>
<path d="M273.756 275.105C273.664 275.022 273.601 274.911 273.575 274.789C273.55 274.667 273.563 274.541 273.614 274.427C273.635 274.341 273.675 274.26 273.73 274.19C273.785 274.12 273.854 274.062 273.933 274.02C274.362 273.845 274.832 273.793 275.289 273.871C274.794 273.607 274.367 273.288 274.346 272.969C274.346 272.759 274.468 272.59 274.746 272.461C274.868 272.404 275.001 272.375 275.136 272.375C275.271 272.375 275.404 272.404 275.526 272.461C276.353 272.8 276.882 274.217 276.882 274.278C276.89 274.297 276.894 274.318 276.894 274.339C276.894 274.36 276.89 274.381 276.882 274.4L276.828 274.441C276.039 274.839 275.188 275.098 274.312 275.207C274.121 275.236 273.925 275.201 273.756 275.105ZM274.095 274.325C274.053 274.347 274.016 274.377 273.986 274.413C273.956 274.449 273.933 274.491 273.919 274.536C273.858 274.773 273.919 274.834 273.96 274.854C274.244 275.092 275.356 274.759 276.251 274.38C275.573 274.231 274.529 274.075 274.095 274.325ZM274.889 272.773C274.807 272.814 274.665 272.895 274.672 272.976C274.672 273.247 275.553 273.722 276.455 274.061C276.252 273.528 275.887 273.073 275.411 272.759C275.333 272.727 275.25 272.711 275.167 272.712C275.071 272.712 274.976 272.733 274.889 272.773Z" fill="#0D5FAA"/>
<path opacity="0.2" d="M278.387 268.196L283.336 267.979L284.001 262.203L278.685 261.301L278.387 268.196Z" fill="black"/>
<path d="M249.564 262.948L256.805 264.223C264.121 246.005 269.321 230.798 272.996 218.18C274.976 211.366 276.481 205.298 277.668 199.935L277.301 219.773V264.42H284.759C302.665 179.67 289.98 159.743 289.98 159.743L268.562 156.184C267.715 160.157 267.115 164.178 266.765 168.225L265.775 175.331L257.402 218.567L249.564 262.948Z" fill="#263238"/>
<path opacity="0.1" d="M249.564 262.948L256.805 264.223C264.121 246.005 269.321 230.798 272.996 218.18C274.976 211.366 276.481 205.298 277.668 199.935L277.301 219.773V264.42H284.759C302.665 179.67 289.98 159.743 289.98 159.743L268.562 156.184C267.715 160.157 267.115 164.178 266.765 168.225L265.775 175.331L257.402 218.567L249.564 262.948Z" fill="white"/>
<path d="M257.945 263.328L248.955 260.352L249.077 264.169L256.515 266.542L257.945 263.328Z" fill="#263238"/>
<path d="M285.688 263.742L276.318 262.372L277.105 266.115L284.834 267.159L285.688 263.742Z" fill="#263238"/>
<path d="M237.979 116.982C237.979 116.982 237.572 115.131 236.846 114.69C236.121 114.25 231.165 113.077 230.609 113.538C230.053 113.999 229.578 118.046 230.466 118.663C231.355 119.28 235.802 119.667 236.243 119.531L237.979 116.982Z" fill="#EBB376"/>
<path d="M290.185 156.747V159.947L267.811 158.272V154.489L290.185 156.747Z" fill="#263238"/>
<path d="M272.839 158.884L277.613 159.312L277.938 155.692L273.163 155.264L272.839 158.884Z" fill="white"/>
<path d="M282.319 160.945L283.402 161L283.684 155.482L282.6 155.427L282.319 160.945Z" fill="#263238"/>
<path opacity="0.1" d="M282.319 160.945L283.402 161L283.684 155.482L282.6 155.427L282.319 160.945Z" fill="white"/>
<path d="M268.987 159.46L270.07 159.516L270.352 153.997L269.268 153.942L268.987 159.46Z" fill="#263238"/>
<path opacity="0.1" d="M268.987 159.46L270.07 159.516L270.352 153.997L269.268 153.942L268.987 159.46Z" fill="white"/>
<path d="M268.013 154.868L289.858 156.76C290.07 151.347 290.847 145.97 292.177 140.718C292.706 138.623 293.357 136.291 294.211 133.586C294.665 132.148 295.16 130.596 295.716 128.928C296.132 127.667 296.584 126.327 297.072 124.907C294.106 123.958 291.074 123.226 288.001 122.718C284.759 122.142 281.481 121.795 278.19 121.68C273.939 121.68 269.057 122.128 269.057 122.128C269.057 122.128 268.379 122.29 267.925 126.799C267.532 131.03 267.132 139.484 268.013 154.868Z" fill="#0D5FAA"/>
<path opacity="0.2" d="M268.013 154.868L289.858 156.76C290.07 151.347 290.847 145.97 292.177 140.718C292.706 138.623 293.357 136.291 294.211 133.586C294.665 132.148 295.16 130.596 295.716 128.928C296.132 127.667 296.584 126.327 297.072 124.907C294.106 123.958 291.074 123.226 288.001 122.718C284.759 122.142 281.481 121.795 278.19 121.68C273.939 121.68 269.057 122.128 269.057 122.128C269.057 122.128 268.379 122.29 267.925 126.799C267.532 131.03 267.132 139.484 268.013 154.868Z" fill="white"/>
<path d="M280.013 126.508C285.396 125.83 287.017 123.518 287.017 123.518C283.627 120.297 286.433 114.704 286.433 114.704L279.938 115.938C280.085 116.835 280.169 117.741 280.189 118.65C280.237 122.582 278.46 122.623 278.46 122.623C277.301 124.752 280.013 126.508 280.013 126.508Z" fill="#EBB376"/>
<path opacity="0.2" d="M279.939 115.938C280.086 116.835 280.17 117.741 280.19 118.65C284.57 118.65 286.414 114.71 286.414 114.71L279.939 115.938Z" fill="black"/>
<path d="M283.519 97.8008C277.884 97.4957 275.905 100.411 275.179 106.194C274.264 113.415 275.593 118.663 282.719 117.497C292.4 115.937 292.895 98.3093 283.519 97.8008Z" fill="#EBB376"/>
<path d="M278.835 106.08C278.338 106.895 277.746 107.648 277.072 108.324C277.223 108.565 277.438 108.76 277.693 108.887C277.948 109.013 278.233 109.067 278.516 109.043L278.835 106.08Z" fill="#D58745"/>
<path d="M282.306 105.809C282.272 106.27 282.496 106.663 282.801 106.683C283.106 106.704 283.391 106.358 283.425 105.897C283.459 105.436 283.242 105.036 282.93 105.016C282.618 104.995 282.347 105.341 282.306 105.809Z" fill="#263238"/>
<path d="M283.058 105.042L282.082 104.574C282.082 104.574 282.516 105.456 283.058 105.042Z" fill="#263238"/>
<path d="M276.57 105.259C276.536 105.72 276.753 106.114 277.065 106.141C277.377 106.168 277.648 105.808 277.689 105.347C277.729 104.886 277.506 104.493 277.194 104.466C276.882 104.439 276.624 104.798 276.57 105.259Z" fill="#263238"/>
<path d="M277.301 104.5L276.324 104.025C276.324 104.025 276.778 104.913 277.301 104.5Z" fill="#263238"/>
<path d="M282.576 101.917C283.025 101.888 283.475 101.963 283.891 102.134C284.307 102.306 284.678 102.57 284.976 102.907" stroke="#263238" stroke-width="0.707336" stroke-linecap="round" stroke-linejoin="round"/>
<path d="M278.494 101.456C278.114 101.338 277.713 101.307 277.32 101.366C276.926 101.425 276.551 101.571 276.223 101.795" stroke="#263238" stroke-width="0.707336" stroke-linecap="round" stroke-linejoin="round"/>
<path d="M279.221 111.3C279.45 111.951 279.633 112.617 279.77 113.293C279.892 113.3 280.014 113.3 280.136 113.293C281.784 113.219 282.523 112.615 282.848 112.019C283.075 111.534 283.126 110.984 282.99 110.466C281.995 110.967 280.903 111.244 279.79 111.28C279.438 111.3 279.221 111.3 279.221 111.3Z" fill="#263238"/>
<path d="M279.783 111.266L279.959 111.85C281.512 111.775 282.59 111.517 283.058 111.022C283.059 110.83 283.034 110.638 282.983 110.453C281.988 110.953 280.896 111.231 279.783 111.266Z" fill="white"/>
<path d="M280.137 113.28C281.784 113.205 282.523 112.602 282.849 112.005C282.221 112.047 281.606 112.198 281.032 112.453C280.656 112.631 280.343 112.919 280.137 113.28Z" fill="#DE5753"/>
<path d="M289.154 107.632C289.154 107.632 286.774 102.886 287.371 99.3133C287.371 99.3133 276.455 94.1401 275.289 105.415C275.289 105.415 274.746 95.2927 284.442 95.5978C294.137 95.9029 293.317 110.066 288.089 114.012C288.089 114.039 290.625 110.616 289.154 107.632Z" fill="#263238"/>
<path d="M287.369 99.313C287.369 99.313 285.769 101.815 287.545 105.157C288.901 107.727 290.406 110.629 289.294 113.293C288.78 114.718 287.887 115.974 286.711 116.927" stroke="#263238" stroke-width="0.488033" stroke-linecap="round" stroke-linejoin="round"/>
<path d="M288.15 108.771C288.241 108.124 288.584 107.539 289.105 107.144C289.626 106.749 290.282 106.576 290.93 106.663C292.665 106.947 293.303 110.575 288.896 111.198C288.306 111.287 287.987 110.663 288.15 108.771Z" fill="#EBB376"/>
<path d="M291.987 124.115C291.987 124.115 285.661 129.247 279.783 129.159C273.905 129.071 271.83 122.46 271.83 122.46C271.83 122.46 280.956 119.762 291.987 124.115Z" fill="#EBB376"/>
<path opacity="0.2" d="M272.996 218.18C274.976 211.366 276.515 205.298 277.701 199.935C277.608 193.576 277.155 187.226 276.345 180.917C276.345 180.917 273.179 205.434 272.996 218.18Z" fill="black"/>
<path d="M296.434 126.108C296.434 126.108 305.553 140.346 307.357 150.516C309.16 160.686 281.484 148.597 281.484 148.597L282.569 144.916C282.569 144.916 297.187 149.601 298.997 148.367C300.807 147.133 293.729 135.125 293.729 135.125L296.434 126.108Z" fill="#EBB376"/>
<path d="M297.039 124.969C298.958 125.728 300.653 130.122 300.653 130.122L292.219 139.22V134.99C292.219 133.065 292.653 131.165 293.487 129.43C294.322 127.695 295.536 126.171 297.039 124.969Z" fill="#0D5FAA"/>
<path d="M284.76 149.16C284.76 149.16 283.092 150.055 282.286 149.79C281.479 149.526 277.37 146.509 277.363 145.783C277.357 145.058 280.123 142.081 281.174 142.353C282.225 142.624 285.398 145.743 285.581 146.183L284.76 149.16Z" fill="#EBB376"/>
<path d="M274.338 101.917C275.945 100.445 278.48 100.337 280.738 100.649C281.076 99.8961 281.582 99.2306 282.216 98.7028C281.861 99.3441 281.588 100.027 281.403 100.737C282.834 100.989 284.237 101.379 285.593 101.903C286 100.506 288.115 98.635 288.115 98.635C276.474 93.2246 274.338 101.917 274.338 101.917Z" fill="#263238"/>
<path d="M248.246 96.9182L203.631 112.682C202.477 113.09 201.872 114.357 202.28 115.511L205.067 123.4C205.475 124.554 206.741 125.159 207.896 124.751L252.511 108.988C253.665 108.58 254.27 107.313 253.862 106.159L251.075 98.27C250.667 97.1155 249.4 96.5103 248.246 96.9182Z" fill="#EBEBEB"/>
<path d="M247.299 101.531L207.268 115.675L208.849 120.15L248.88 106.006L247.299 101.531Z" fill="#0D5FAA"/>
<path opacity="0.3" d="M224.418 105.3L219.116 120.833L207.929 124.786C207.355 124.986 206.725 124.957 206.172 124.704C205.619 124.451 205.184 123.995 204.96 123.43L202.173 115.551C202 114.966 202.055 114.338 202.327 113.792C202.599 113.246 203.067 112.823 203.638 112.609L224.418 105.3Z" fill="white"/>
<path opacity="0.3" d="M237.755 100.574L232.982 115.924L227.26 117.945L232.277 102.507L237.755 100.574Z" fill="white"/>
<path d="M295.783 151.811L251.926 134.047C250.791 133.587 249.498 134.135 249.039 135.269L245.898 143.024C245.438 144.159 245.986 145.452 247.12 145.911L290.977 163.675C292.112 164.135 293.405 163.587 293.864 162.452L297.005 154.698C297.465 153.563 296.918 152.27 295.783 151.811Z" fill="#EBEBEB"/>
<path d="M292.021 154.632L252.67 138.693L250.888 143.092L290.239 159.031L292.021 154.632Z" fill="#0D5FAA"/>
<path opacity="0.3" d="M272.359 142.265L258.121 150.401L247.124 145.946C246.562 145.721 246.108 145.289 245.856 144.739C245.603 144.189 245.572 143.563 245.768 142.99L248.907 135.24C249.164 134.687 249.621 134.252 250.186 134.023C250.751 133.794 251.382 133.788 251.952 134.006L272.359 142.265Z" fill="white"/>
<path opacity="0.3" d="M285.505 147.593L271.762 155.919L266.135 153.641L280.122 145.41L285.505 147.593Z" fill="white"/>
<path d="M235.014 116.616C235.259 115.788 235.61 114.995 236.058 114.256C236.404 113.836 235.298 112.568 235.271 112.019C235.244 111.47 235.481 111.47 235.481 111.47C237.122 112.9 237.753 113.633 237.99 116.995L235.014 116.616Z" fill="#EBB376"/>
<path d="M281.188 142.38C279.933 142.326 276.204 144.909 277.052 145.438C277.899 145.966 282.076 149.702 282.889 149.207C283.566 148.66 284.136 147.994 284.571 147.241L281.188 142.38Z" fill="#EBB376"/>
<path opacity="0.1" d="M153.439 68.3015L111.769 68.4778L63.0547 78.1529L66.3565 171.446L67.5973 177.636L171.46 156.719L153.439 68.3015Z" fill="black"/>
<path d="M168.003 154.72L63.5974 175.46L47.8814 96.3371L42.8574 71.0545L147.263 50.3145L156.26 95.6116L168.003 154.72Z" fill="#FAFAFA"/>
<path d="M168.002 154.719L63.5901 175.459L47.8809 96.3364C51.7048 92.4175 56.4033 88.6546 60.2408 88.8173C68.1395 89.1563 95.2256 113.293 95.2256 113.293C95.2256 113.293 100.873 95.9363 106.033 96.9533C111.192 97.9703 147.432 122.127 147.432 122.127C147.432 122.127 151.696 107.693 156.246 95.6109L168.002 154.719Z" fill="#F0F0F0"/>
<path d="M106.892 104.046C106.892 104.046 102.424 109.355 93.9019 117.728C93.0544 118.569 81.9623 113.463 81.9623 113.463L78.8164 115.497C78.8164 115.497 91.2916 125.45 93.7324 124.874C96.3766 124.257 108.343 114.311 108.343 114.311L106.892 104.046Z" fill="#0D5FAA"/>
<path opacity="0.2" d="M106.892 104.046C106.892 104.046 102.424 109.355 93.9019 117.728C93.0544 118.569 81.9623 113.463 81.9623 113.463L78.8164 115.497C78.8164 115.497 91.2916 125.45 93.7324 124.874C96.3766 124.257 108.343 114.311 108.343 114.311L106.892 104.046Z" fill="black"/>
<path d="M81.8469 117.823C81.8469 117.823 84.4098 115.653 84.3081 114.812C84.2064 113.972 82.586 110.832 81.8808 110.683C81.1757 110.534 77.6976 112.656 77.7586 113.734C77.8196 114.812 78.4841 116.562 78.8976 116.778C79.8614 117.179 80.8459 117.527 81.8469 117.823Z" fill="#B97964"/>
<path d="M106.031 119.585C106.031 119.585 113.062 130.725 116.127 132.827C119.191 134.929 135.111 138.766 135.111 138.766C135.111 138.766 137.057 142.095 137.87 141.478C138.684 140.861 139.457 139.573 139.362 139.071C138.717 137.679 137.971 136.335 137.131 135.051C136.914 134.806 134.107 135.193 134.107 135.193L119.456 129.003C118.649 128.637 110.445 115.26 110.445 115.26L106.031 119.585Z" fill="#EBB376"/>
<path d="M107.605 123.328C107.686 123.305 107.76 123.263 107.822 123.206C108.128 122.993 108.408 122.745 108.656 122.467C110.866 120.101 111.531 115.755 111.531 115.755C111.531 115.755 108.487 109.971 106.249 109.978C106.249 109.978 105.971 113.267 105.964 116.582C105.937 120.236 106.249 123.932 107.605 123.328Z" fill="#0D5FAA"/>
<path d="M76.8371 118.846C76.8371 118.846 73.7251 128.338 71.4673 129.186C69.2096 130.033 66.7213 105.022 66.7213 105.022L62.8906 105.768C62.8906 105.768 63.6432 133.044 69.4333 136.101C75.2235 139.159 83.0408 122.847 83.0408 122.847L76.8371 118.846Z" fill="#EBB376"/>
<path d="M79.4135 88.3361C79.4135 88.3361 80.5525 82.7697 88.3021 82.3562C96.8313 81.8951 104.486 96.7433 102.913 113.036C101.34 129.328 88.1122 131.226 85.285 124.596C82.4577 117.965 81.7255 109.808 78.6948 102.222C75.6641 94.6347 77.1761 89.3667 79.4135 88.3361Z" fill="#263238"/>
<path d="M85.4284 171.12L113.986 165.432L113.267 162.774L111.809 155.763C111.308 152.902 110.582 148.983 109.775 145.96C109.579 145.214 109.382 144.515 109.172 143.892L108.562 144.041L107.504 144.292L104.758 144.97L100.087 146.095L95.4493 147.207L94.3848 147.458L88.0659 148.977C88.0242 149.029 87.9921 149.089 87.9709 149.153C87.4624 150.272 85.0623 155.987 85.4284 171.12Z" fill="#263238"/>
<path opacity="0.1" d="M85.4284 171.12L113.986 165.432L113.267 162.774L111.809 155.763C111.308 152.902 110.582 148.983 109.775 145.96C109.579 145.214 109.382 144.515 109.172 143.892L108.562 144.041L107.504 144.292L104.758 144.97L100.087 146.095L95.4493 147.207L94.3848 147.458L88.0659 148.977C88.0242 149.029 87.9921 149.089 87.9709 149.153C87.4624 150.272 85.0623 155.987 85.4284 171.12Z" fill="white"/>
<path d="M87.6113 146.007L87.8351 149.2L110.033 145.946L109.768 142.169L87.6113 146.007Z" fill="#263238"/>
<path d="M104.502 143.318L99.7695 144.082L100.349 147.67L105.081 146.905L104.502 143.318Z" fill="white"/>
<path d="M95.0611 144.138L93.9844 144.27L94.6559 149.755L95.7327 149.623L95.0611 144.138Z" fill="#263238"/>
<path opacity="0.1" d="M95.0611 144.138L93.9844 144.27L94.6559 149.755L95.7327 149.623L95.0611 144.138Z" fill="white"/>
<path d="M108.264 141.724L107.188 141.856L107.859 147.341L108.936 147.209L108.264 141.724Z" fill="#263238"/>
<path opacity="0.1" d="M108.264 141.724L107.188 141.856L107.859 147.341L108.936 147.209L108.264 141.724Z" fill="white"/>
<path d="M78.4922 114.731C79.0888 116.087 79.6312 117.443 80.133 118.65C80.811 120.27 81.4144 121.782 81.9635 123.193C82.9941 125.823 83.8077 128.108 84.4789 130.162C86.1783 135.305 87.3371 140.611 87.9367 145.994L109.592 142.563C109.517 137.044 109.334 132.393 109.111 128.569C108.968 126.264 108.819 124.243 108.656 122.467C108.345 118.914 107.978 116.365 107.687 114.562C107.009 110.494 106.331 109.958 106.25 109.911C106.247 109.886 106.247 109.861 106.25 109.836H106.141C105.422 109.836 100.981 109.836 97.1033 110.114C93.8292 110.47 90.5846 111.059 87.3943 111.877C84.3622 112.613 81.3871 113.567 78.4922 114.731Z" fill="#0D5FAA"/>
<path opacity="0.2" d="M78.4922 114.731C79.0888 116.087 79.6312 117.443 80.133 118.65C80.811 120.27 81.4144 121.782 81.9635 123.193C82.9941 125.823 83.8077 128.108 84.4789 130.162C86.1783 135.305 87.3371 140.611 87.9367 145.994L109.592 142.563C109.517 137.044 109.334 132.393 109.111 128.569C108.968 126.264 108.819 124.243 108.656 122.467C108.345 118.914 107.978 116.365 107.687 114.562C107.009 110.494 106.331 109.958 106.25 109.911C106.247 109.886 106.247 109.861 106.25 109.836H106.141C105.422 109.836 100.981 109.836 97.1033 110.114C93.8292 110.47 90.5846 111.059 87.3943 111.877C84.3622 112.613 81.3871 113.567 78.4922 114.731Z" fill="white"/>
<path d="M95.6317 115.124C90.2077 114.819 88.4381 112.636 88.4381 112.636C91.6179 109.178 88.3906 103.822 88.3906 103.822L94.9401 104.575C94.8564 105.476 94.836 106.382 94.8791 107.287C95.1096 111.212 96.9131 111.124 96.9131 111.124C98.1742 113.185 95.6317 115.124 95.6317 115.124Z" fill="#EBB376"/>
<path opacity="0.2" d="M94.9206 104.561C94.8368 105.462 94.8164 106.369 94.8596 107.273C90.4932 107.578 88.3711 103.781 88.3711 103.781L94.9206 104.561Z" fill="black"/>
<path d="M86.1055 87.4004C91.4007 85.4613 94.1466 87.6716 96.5331 92.9871C99.5163 99.6315 99.7739 105.035 92.6211 106.005C82.8918 107.32 77.2915 90.6209 86.1055 87.4004Z" fill="#EBB376"/>
<path d="M92.9941 93.9502C93.7079 94.5848 94.4955 95.1312 95.34 95.5774C95.2649 95.8534 95.115 96.1033 94.9068 96.2995C94.6986 96.4958 94.4403 96.6306 94.1603 96.6893L92.9941 93.9502Z" fill="#D58745"/>
<path d="M88.202 91.0618C87.7597 91.1606 87.3461 91.36 86.9933 91.6446C86.6406 91.9291 86.3581 92.2912 86.168 92.7025" stroke="#263238" stroke-width="0.707336" stroke-linecap="round" stroke-linejoin="round"/>
<path d="M91.9707 89.4281C92.2984 89.205 92.6722 89.0587 93.0643 89C93.4563 88.9413 93.8565 88.9718 94.2352 89.0891" stroke="#263238" stroke-width="0.707336" stroke-linecap="round" stroke-linejoin="round"/>
<path d="M94.1538 99.0554C94.1209 99.7451 94.1391 100.436 94.208 101.123L93.8555 101.218C92.2554 101.625 91.3808 101.286 90.8926 100.784C90.6591 100.537 90.4892 100.237 90.3977 99.9097C90.3412 99.7248 90.3093 99.5334 90.3027 99.3402C91.4013 99.5285 92.5275 99.4776 93.6046 99.191C93.9436 99.1164 94.1538 99.0554 94.1538 99.0554Z" fill="#263238"/>
<path d="M93.5626 99.1914V99.7948C92.2067 100.181 90.9659 100.242 90.3761 99.9101C90.3158 99.7256 90.2793 99.5343 90.2676 99.3406C91.3636 99.5327 92.4885 99.4817 93.5626 99.1914Z" fill="white"/>
<path d="M93.8554 101.218C92.2554 101.625 91.3807 101.286 90.8926 100.784C91.5035 100.643 92.1344 100.608 92.7571 100.683C93.1694 100.744 93.5529 100.931 93.8554 101.218Z" fill="#DE5753"/>
<path d="M83.5775 98.4455C83.5775 98.4455 84.4589 93.191 82.8588 89.9637C82.8588 89.9637 91.7813 81.8277 96.2018 92.3028C96.2018 92.3028 93.761 82.465 84.5809 85.5838C75.4008 88.7026 80.3163 102.019 86.4725 104.263C86.4725 104.263 83.0418 101.734 83.5775 98.4455Z" fill="#263238"/>
<path d="M82.8594 89.9634C82.8594 89.9634 85.1171 91.8889 84.3917 95.6043C83.8357 98.4723 83.2526 101.706 85.0697 103.889C85.977 105.099 87.1988 106.037 88.602 106.601" stroke="#263238" stroke-width="0.488033" stroke-linecap="round" stroke-linejoin="round"/>
<path d="M84.8506 99.2522C84.5764 98.6579 84.0773 98.1969 83.4632 97.9706C82.849 97.7443 82.1702 97.7712 81.5759 98.0454C79.9961 98.8251 80.4504 102.479 84.8303 101.795C85.4269 101.7 85.5761 101.022 84.8506 99.2522Z" fill="#EBB376"/>
<path d="M90.3646 94.4724C90.1884 94.38 89.9932 94.33 89.7943 94.3262C89.5954 94.3224 89.3984 94.3649 89.2188 94.4504C89.0392 94.5359 88.882 94.6621 88.7596 94.8189C88.6372 94.9757 88.553 95.1588 88.5137 95.3538" stroke="#263238" stroke-width="0.488033" stroke-linecap="round" stroke-linejoin="round"/>
<path d="M93.502 93.2859C93.502 93.2859 94.0782 91.9706 95.2241 92.6079" stroke="#263238" stroke-width="0.488033" stroke-linecap="round" stroke-linejoin="round"/>
<path d="M83.502 113.585C83.502 113.585 90.1667 118.257 96.0314 117.755C101.896 117.253 103.489 110.507 103.489 110.507C103.489 110.507 94.194 108.48 83.502 113.585Z" fill="#EBB376"/>
<path d="M78.526 114.799C76.6615 115.687 75.2852 120.223 75.2852 120.223L84.3364 128.704L84.0381 124.48C83.9029 122.562 83.3371 120.698 82.3828 119.028C81.4286 117.357 80.1103 115.923 78.526 114.832V114.799Z" fill="#0D5FAA"/>
<path d="M96.0793 88.6548C94.1131 87.7124 91.652 88.3565 89.5841 89.3328C89.0434 88.7112 88.3657 88.2238 87.6043 87.909C88.1246 88.4234 88.58 88.9994 88.9603 89.6244C87.6669 90.2871 86.4388 91.0703 85.2923 91.9635C84.4923 90.7498 81.9023 89.5769 81.9023 89.5769C91.5299 80.9663 96.0793 88.6548 96.0793 88.6548Z" fill="#263238"/>
<path d="M66.044 106.235C67.5084 105.557 66.8779 100.438 65.549 97.4214C64.9185 95.9908 63.793 96.262 60.0436 99.3062C58.9724 100.181 61.9556 107.605 63.4336 107.144C64.9117 106.683 66.044 106.235 66.044 106.235Z" fill="#EBB376"/>
<path opacity="0.2" d="M105.951 116.616C106.358 118.595 106.968 121.029 107.606 123.396C108.135 125.301 108.663 127.145 109.111 128.636C108.969 126.331 108.819 124.311 108.657 122.534C110.867 120.168 111.531 115.822 111.531 115.822C111.531 115.822 108.487 109.971 106.25 109.978C106.247 109.953 106.247 109.928 106.25 109.903H106.141C105.698 110.932 105.478 112.044 105.497 113.164C105.543 114.326 105.695 115.481 105.951 116.616Z" fill="black"/>
<path d="M117.646 74.6884C117.646 74.6884 117.646 68.2949 124.101 67.705C130.556 67.1151 131.986 73.7392 131.268 78.8378C130.549 83.9363 135.281 86.2958 137.62 88.2077C139.959 90.1197 140.563 93.7673 136.502 95.6657C136.852 95.2095 137.051 94.6555 137.072 94.0807C137.093 93.5059 136.934 92.939 136.617 92.4588C135.552 90.5739 130.284 91.9367 127.05 87.8416C123.199 82.9668 124.182 75.6715 121.477 77.1292C118.772 78.5869 117.646 74.6884 117.646 74.6884Z" fill="#263238"/>
<path d="M124.852 78.6479C124.852 78.6479 124.29 88.601 128.812 90.3163C131.7 91.4147 132.08 92.2554 131.524 93.8623" stroke="#263238" stroke-width="0.5" stroke-linecap="round" stroke-linejoin="round"/>
<path d="M114.074 165.432L143.574 159.574C142.454 154.678 140.989 149.868 139.187 145.18C138.611 143.749 138.068 142.549 137.567 141.532C135.878 138.081 134.712 136.861 134.712 136.861L128.515 137.057L113.009 137.552C112.951 141.311 113.118 145.069 113.511 148.807C113.545 149.119 113.572 149.417 113.599 149.709L114.033 156.848L114.074 165.432Z" fill="#0D5FAA"/>
<path opacity="0.5" d="M114.074 165.432L143.574 159.574C142.454 154.678 140.989 149.868 139.187 145.18C138.611 143.749 138.068 142.549 137.567 141.532C135.878 138.081 134.712 136.861 134.712 136.861L128.515 137.057L113.009 137.552C112.951 141.311 113.118 145.069 113.511 148.807C113.545 149.119 113.572 149.417 113.599 149.709L114.033 156.848L114.074 165.432Z" fill="white"/>
<path d="M139.742 145.126L134.047 133.959C133.289 129.121 132.983 124.223 133.131 119.328C133.131 118.833 133.172 118.331 133.199 117.809C133.301 115.653 133.484 113.239 133.782 110.419C133.782 110.317 133.782 110.215 133.816 110.114C133.972 108.703 134.148 107.178 134.352 105.558C134.514 104.242 134.698 102.846 134.908 101.347C131.814 100.994 128.698 100.867 125.585 100.967C122.293 101.032 119.01 101.331 115.761 101.862C111.598 102.662 106.893 104.079 106.893 104.079C106.893 104.079 106.249 104.371 106.689 108.88C107.13 113.11 108.391 121.477 112.249 136.393L112.14 149.031L139.742 145.126Z" fill="#0D5FAA"/>
<path d="M117.918 106.859C122.481 103.917 122.956 101.144 122.956 101.144C118.481 99.7064 118.637 93.4485 118.637 93.4485L113.314 97.3266C113.835 98.0769 114.302 98.8631 114.711 99.6793C116.454 103.212 114.86 104.012 114.86 104.012C114.752 106.446 117.918 106.859 117.918 106.859Z" fill="#B97964"/>
<path opacity="0.2" d="M113.314 97.3266C113.835 98.0769 114.302 98.8631 114.711 99.6793C118.664 97.7945 118.637 93.4485 118.637 93.4485L113.314 97.3266Z" fill="black"/>
<path d="M101.699 85.8956C101.699 85.8956 102.879 90.4383 107.272 90.6417C111.666 90.8451 117.775 82.6684 113.598 79.9089C109.422 77.1494 102.106 80.0648 101.699 85.8956Z" fill="#263238"/>
<path d="M108.744 79.4341C103.523 81.5766 102.994 85.0615 104.825 90.594C107.117 97.5096 110.568 101.673 116.5 97.5503C124.555 91.9568 117.409 75.8679 108.744 79.4341Z" fill="#B97964"/>
<path d="M108.08 88.9194C107.983 89.8703 107.771 90.806 107.449 91.706C107.693 91.8552 107.974 91.9342 108.259 91.9342C108.545 91.9342 108.826 91.8552 109.07 91.706L108.08 88.9194Z" fill="#A24E3F"/>
<path d="M111.098 87.1768C111.268 87.6107 111.634 87.8548 111.919 87.7599C112.203 87.665 112.312 87.2107 112.142 86.7768C111.973 86.3429 111.607 86.0988 111.322 86.1937C111.037 86.2886 110.929 86.7429 111.098 87.1768Z" fill="#263238"/>
<path d="M111.45 86.167H110.365C110.365 86.167 111.138 86.784 111.45 86.167Z" fill="#263238"/>
<path d="M105.687 89.1567C105.85 89.5906 106.216 89.8347 106.508 89.7398C106.799 89.6448 106.894 89.1838 106.732 88.7499C106.569 88.316 106.196 88.0719 105.904 88.1736C105.613 88.2753 105.518 88.7228 105.687 89.1567Z" fill="#263238"/>
<path d="M106.032 88.1399H104.947C104.947 88.1399 105.72 88.7501 106.032 88.1399Z" fill="#263238"/>
<path d="M109.666 83.5564C110.058 83.3349 110.495 83.2068 110.944 83.1821C111.394 83.1574 111.842 83.2368 112.256 83.4141" stroke="#263238" stroke-width="0.707336" stroke-linecap="round" stroke-linejoin="round"/>
<path d="M105.768 84.8923C105.375 84.9502 105 85.0961 104.671 85.3192C104.342 85.5423 104.068 85.8367 103.869 86.1805" stroke="#263238" stroke-width="0.707336" stroke-linecap="round" stroke-linejoin="round"/>
<path d="M112.983 91.6453C112.243 92.8025 111.08 93.6248 109.742 93.9369" stroke="#263238" stroke-width="0.75" stroke-linecap="round" stroke-linejoin="round"/>
<path d="M105.72 81.5971C105.72 81.5971 108.798 87.638 118.459 84.6413C118.459 84.6413 120.493 89.9229 119.856 92.0993C119.856 92.0993 126.175 90.8857 124.229 81.6581C122.283 72.4305 114.107 70.6202 109.212 74.1323C106.839 74.7673 104.661 75.981 102.872 77.6647C100.587 79.6987 97.3736 86.7838 104.601 89.8687C104.601 89.8687 101.618 83.4819 105.72 81.5971Z" fill="#263238"/>
<path d="M117.667 87.3328C117.469 86.7088 117.526 86.0317 117.826 85.4497C118.126 84.8677 118.644 84.4282 119.267 84.2276C120.955 83.7394 123.091 86.7362 119.403 89.1905C118.867 89.5431 118.311 89.116 117.667 87.3328Z" fill="#B97964"/>
<path d="M107.523 104.52C108.272 105.223 109.08 105.86 109.937 106.425C110.478 106.797 111.042 107.135 111.625 107.436C113.659 108.5 116.175 109.334 118.785 108.853C121.102 108.321 123.325 107.439 125.375 106.235C126.103 105.838 126.794 105.431 127.45 105.015C129.11 103.989 130.715 102.876 132.257 101.679C130.87 101.43 129.468 101.271 128.06 101.205C127.518 101.205 126.968 101.164 126.426 101.157C121.693 101.188 116.983 101.826 112.412 103.056L110.981 103.456C108.832 104.025 107.523 104.52 107.523 104.52Z" fill="#B97964"/>
<path opacity="0.2" d="M125.674 163.134L126.352 162.991C126.114 162.313 125.748 161.147 125.43 160.279C125.464 160.259 125.491 161.1 125.674 163.134Z" fill="black"/>
<path d="M125.375 106.235C126.103 105.838 126.795 105.431 127.45 105.015C127.41 103.718 127.617 102.425 128.06 101.205C127.518 101.205 126.969 101.164 126.426 101.157C125.719 102.756 125.361 104.487 125.375 106.235Z" fill="white"/>
<path d="M109.938 106.446C110.478 106.818 111.042 107.155 111.626 107.456C111.502 105.946 111.773 104.43 112.412 103.056L110.982 103.456C110.431 104.37 110.075 105.388 109.938 106.446Z" fill="white"/>
<path opacity="0.2" d="M133.132 119.328C133.132 118.833 133.173 118.331 133.2 117.809C133.301 115.653 133.484 113.239 133.783 110.419C133.783 110.317 133.783 110.215 133.817 110.114C133.15 109.635 132.397 109.29 131.6 109.097C131.6 109.097 130.61 116.616 133.132 119.328Z" fill="black"/>
<path d="M129.417 123.145L121.532 123.342C120.671 122.69 119.709 122.184 118.684 121.843C117.328 121.497 113.633 120.277 112.968 121.043C112.304 121.809 112.033 126.467 113.24 127.145C114.447 127.823 120.128 127.823 121.477 126.982L129.735 127.769L129.417 123.145Z" fill="#B97964"/>
<path d="M134.923 101.313C136.74 102.52 151.385 124.074 152.239 128.352C153.094 132.63 124.896 128.203 124.896 128.203L124.658 122.548L139.967 122.27C139.967 122.27 135.933 117.287 133.404 114.717C132.538 113.505 131.964 112.108 131.729 110.636C131.494 109.164 131.603 107.658 132.048 106.235C133.472 101.171 134.923 101.313 134.923 101.313Z" fill="#0D5FAA"/>
<path opacity="0.1" d="M134.923 101.313C136.74 102.52 151.385 124.074 152.239 128.352C153.094 132.63 124.896 128.203 124.896 128.203L124.658 122.548L139.967 122.27C139.967 122.27 135.933 117.287 133.404 114.717C132.538 113.505 131.964 112.108 131.729 110.636C131.494 109.164 131.603 107.658 132.048 106.235C133.472 101.171 134.923 101.313 134.923 101.313Z" fill="black"/>
<path opacity="0.3" d="M168.008 154.719L161.554 156.001L143.79 159.533L72.7358 173.642L63.5964 175.459L61.9285 167.073L56.5791 140.156L42.8496 71.0542L44.5446 70.722L63.5693 66.9387L86.3433 62.4165L99.266 59.8468L117.043 56.3145L133.43 53.0601L147.262 50.3074L162.334 126.176L168.008 154.719Z" fill="white"/>
<path opacity="0.3" d="M99.266 59.8467L56.5791 140.156L42.8496 71.054L44.5446 70.7218L63.5693 66.9386L86.3433 62.4163L99.266 59.8467Z" fill="white"/>
<path opacity="0.3" d="M133.43 53.0603L72.7351 173.643L63.5956 175.46L61.9277 167.073L117.042 56.3147L133.43 53.0603Z" fill="white"/>
<path d="M146.726 51.1138L155.594 95.7397L167.201 154.183L64.1455 174.659L48.5447 96.2075L43.6563 71.5894L146.712 51.1138H146.726ZM147.248 50.3137L42.8359 71.0537L47.8599 96.3364L63.5963 175.459L168.008 154.719L156.259 95.5974L147.261 50.3137H147.248Z" fill="#263238"/>
<g opacity="0.7">
<path opacity="0.7" d="M146.726 51.1138L155.594 95.7397L167.201 154.183L64.1455 174.659L48.5447 96.2075L43.6563 71.5894L146.712 51.1138H146.726ZM147.248 50.3137L42.8359 71.0537L47.8599 96.3364L63.5963 175.459L168.008 154.719L156.259 95.5974L147.261 50.3137H147.248Z" fill="white"/>
</g>
<path d="M62.8907 148.482C62.8907 148.482 44.4084 159.838 42.8829 155.214C41.3574 150.59 52.0359 127.294 54.1716 126.108L55.9886 133.152L57.3989 138.617C57.3989 138.617 55.948 140.549 54.4496 142.685C52.68 145.221 50.8358 148.068 51.2223 148.387C51.9003 148.984 59.8193 143.905 59.8193 143.905L62.8907 148.482Z" fill="#0D5FAA"/>
<path opacity="0.1" d="M62.8907 148.482C62.8907 148.482 44.4084 159.838 42.8829 155.214C41.3574 150.59 52.0359 127.294 54.1716 126.108L55.9886 133.152L57.3989 138.617C57.3989 138.617 55.948 140.549 54.4496 142.685C52.68 145.221 50.8358 148.068 51.2223 148.387C51.9003 148.984 59.8193 143.905 59.8193 143.905L62.8907 148.482Z" fill="black"/>
<path opacity="0.2" d="M57.3985 138.61C57.3985 138.61 55.9476 140.542 54.4492 142.678C52.8627 139.749 55.9883 133.132 55.9883 133.132L57.3985 138.61Z" fill="black"/>
<path d="M43.0781 274.013L47.5936 274.807L49.4513 268.65L51.1395 262.996L45.9325 261.179L44.4206 267.972L43.0781 274.013Z" fill="#E4897B"/>
<path opacity="0.2" d="M44.3945 268.108L49.4253 268.772L51.1271 263.064L45.9268 261.213L44.3945 268.108Z" fill="black"/>
<path d="M73.2285 274.589H77.8186L78.5712 268.203L79.2492 262.345L73.8048 261.457L73.4997 268.413L73.2285 274.589Z" fill="#E4897B"/>
<path opacity="0.2" d="M73.5 268.555L78.5714 268.331L79.2494 262.406L73.8051 261.49L73.5 268.555Z" fill="black"/>
<path d="M43.9668 263.173L51.4248 264.481C58.8828 245.816 64.2458 230.235 68.0087 217.306C70.0427 210.329 71.6631 204.125 72.8767 198.62L72.5784 218.96V265.098H80.0364C98.3763 177.636 85.379 157.649 85.379 157.649L63.3983 153.906C62.5304 157.954 61.9167 162.053 61.5609 166.178L60.571 173.432L51.9943 217.719L43.9668 263.173Z" fill="#0D5FAA"/>
<g opacity="0.5">
<path opacity="0.5" d="M43.9668 263.173L51.4248 264.481C58.2658 247.429 63.3101 232.954 67.0188 220.723C67.3646 219.564 67.751 218.424 68.0833 217.333C69.9206 211 71.2427 205.305 72.5987 200.193C72.6573 199.671 72.7733 199.157 72.9445 198.661L72.5987 219.001V265.098H80.0567C91.2573 211.536 90.7692 183.433 88.6945 169.534C87.3385 160.672 85.3994 157.649 85.3994 157.649L63.3983 153.906C62.5304 157.954 61.9167 162.053 61.5609 166.178L61.2626 168.361L60.5846 173.432L51.9943 217.719L43.9668 263.173Z" fill="white"/>
</g>
<path d="M52.5568 263.565L43.3496 260.508L43.4717 264.426L51.0924 266.854L52.5568 263.565Z" fill="#0D5FAA"/>
<path opacity="0.6" d="M52.5568 263.565L43.3496 260.508L43.4717 264.426L51.0924 266.854L52.5568 263.565Z" fill="white"/>
<path d="M80.9785 263.993L71.3848 262.583L72.1848 266.42L80.1106 267.484L80.9785 263.993Z" fill="#0D5FAA"/>
<path opacity="0.6" d="M80.9785 263.993L71.3848 262.583L72.1848 266.42L80.1106 267.484L80.9785 263.993Z" fill="white"/>
<path opacity="0.2" d="M66.9648 220.722C67.3106 219.563 67.6971 218.424 68.0225 217.332C69.8599 211 71.1888 205.305 72.5448 200.193L73.277 190.782C73.277 190.782 68.5785 180.443 70.3345 173.154C70.1718 173.568 67.0598 181.493 68.3005 189.426C68.563 199.876 68.1167 210.333 66.9648 220.722Z" fill="black"/>
<path d="M64.253 116.175C64.3071 116.224 64.3662 116.267 64.4292 116.304C65.2734 116.949 66.2364 117.421 67.2633 117.694C70.26 118.372 72.3076 117.972 73.6433 116.616C75.5145 114.582 75.9824 110.982 75.7179 106.629C75.6725 104.899 75.3521 103.187 74.7687 101.557C74.7687 101.557 74.7687 101.49 74.7687 101.476C74.7687 101.462 74.7213 101.347 74.6942 101.293C74.3272 100.374 73.7361 99.5608 72.9746 98.9285C72.2132 98.2961 71.3056 97.8643 70.3346 97.6724C69.4908 97.4856 68.6293 97.3901 67.765 97.3876C59.2832 97.2995 57.7577 111.334 64.253 116.175Z" fill="#B97964"/>
<path opacity="0.2" d="M64.4102 116.304C65.2613 116.91 66.2247 117.341 67.2442 117.571C70.241 118.249 72.2885 117.754 73.6242 116.378C71.832 116.823 69.9435 116.668 68.2476 115.937C67.0544 115.381 65.7051 115.666 64.4102 116.304Z" fill="black"/>
<path d="M63.0862 123.321C62.1777 125.619 65.1202 127.097 65.1202 127.097C70.5442 125.741 71.9002 123.233 71.9002 123.233C68.0492 120.351 70.2798 114.344 70.2798 114.344L69.3577 114.622L63.154 114.819C63.154 114.819 64.2998 118.29 64.4016 119.056C64.8897 123.077 63.0862 123.321 63.0862 123.321Z" fill="#B97964"/>
<path d="M74.7829 101.496C74.7829 101.496 75.2507 107.442 69.6165 109.998C69.6165 109.998 67.196 116.168 63.6365 116.256C58.7821 116.378 54.5039 109.476 56.1785 102.432C58.3685 93.3124 72.1861 92.5666 74.7829 101.496Z" fill="#263238"/>
<path d="M65.3029 94.5806C65.3029 94.5806 74.5305 92.0381 75.7915 98.4791C77.5476 107.415 69.0115 108.222 69.0115 108.222C69.0115 108.222 71.2489 115.26 63.5875 116.256C50.8479 117.924 49.0377 90.9668 65.3029 94.5806Z" fill="#263238"/>
<path d="M72.469 108.29C72.469 107.361 71.7232 105.802 70.2791 106.019C68.8349 106.236 67.9603 109.91 71.6351 110.731C72.1504 110.853 72.469 110.222 72.469 108.29Z" fill="#B97964"/>
<path d="M60.2386 96.7842C60.2386 96.7842 58.9843 90.5127 52.5433 91.1907C46.1023 91.8687 45.9871 98.6487 47.6821 103.51C49.3771 108.371 45.2006 111.598 43.2751 113.938C41.3495 116.277 41.4784 119.965 45.8243 121.002C45.3921 120.622 45.0887 120.117 44.9563 119.557C44.8238 118.997 44.869 118.41 45.0853 117.877C45.7633 115.843 51.1873 116.134 53.5671 111.49C56.4012 105.951 54.0146 98.9877 56.9571 99.8894C59.8996 100.791 60.2386 96.7842 60.2386 96.7842Z" fill="#263238"/>
<path d="M53.9336 102.039C53.9336 102.039 56.4218 111.694 52.3267 114.243C49.7029 115.884 49.4995 116.779 50.3402 118.257" stroke="#263238" stroke-width="0.5" stroke-linecap="round" stroke-linejoin="round"/>
<path d="M64.4102 95.2923C64.4102 95.2923 70.8444 91.4819 74.8107 95.1838C77.6515 97.828 76.5803 102.038 76.5803 102.038" stroke="#263238" stroke-width="0.5" stroke-linecap="round" stroke-linejoin="round"/>
<path d="M54.1699 126.108C54.1699 126.108 58.8481 124.27 63.0449 123.118C66.3166 122.296 69.6427 121.71 72.998 121.362C76.169 121.005 79.3616 120.878 82.551 120.982C82.4561 122.514 82.3883 123.965 82.3272 125.328C82.2459 127.125 82.1916 128.793 82.151 130.338C82.0832 133.24 82.0899 135.722 82.151 137.932C82.3272 143.831 81.6018 149.051 82.5306 153.526L63.2009 155.94H61.8449C57.1395 142.38 55.1191 135.064 54.3869 130.969C53.5597 126.406 54.1699 126.108 54.1699 126.108Z" fill="#B97964"/>
<path d="M73.2231 120.717C73.2231 120.717 71.3586 123.056 71.3044 128.141C71.3044 128.141 65.4533 132.298 60.7683 130.942C60.7683 130.942 60.2259 125.518 61.3039 123.619L60.0225 124.019C60.0225 124.019 57.7444 130.908 58.9852 134.189C60.2259 137.471 73.6435 130.46 73.6435 130.46C73.6435 130.46 72.7621 124.107 74.4029 121.239L73.2231 120.717Z" fill="white"/>
<path d="M59.4605 176.13L61.264 155.716C61.264 155.716 51.5279 131.884 54.1721 126.107C55.1211 125.388 56.1977 124.854 57.3451 124.534C57.3451 124.534 56.5519 128.602 62.9115 129.389C69.2712 130.175 77.1495 120.236 77.1495 120.236C77.1495 120.236 80.8853 120.426 82.5193 121.009C82.5193 121.009 82.5193 124.439 82.5193 129.179C82.56 132.277 82.6413 135.959 82.7973 139.572C82.9218 143.812 83.268 148.041 83.8346 152.244C83.8346 152.244 88.8179 160.916 89.7468 168.516L59.4605 176.13Z" fill="#0D5FAA"/>
<path d="M71.9276 273.912C71.9276 273.424 77.9076 273.803 77.9076 273.803C77.9076 273.803 81.5756 277.539 85.1419 278.38C88.7081 279.221 86.7148 281.37 82.7146 281.37H72.8701C70.0428 281.37 71.8124 278.956 71.9276 273.912Z" fill="#263238"/>
<path d="M78.5717 274.59C78.5534 274.583 78.5371 274.571 78.5242 274.556C78.5242 274.556 78.5242 274.556 78.5242 274.515C78.5213 274.5 78.5213 274.484 78.5242 274.468C78.5206 274.445 78.5206 274.422 78.5242 274.4C78.5242 274.332 79.0531 272.949 79.8802 272.617C80 272.56 80.1308 272.531 80.2633 272.531C80.3958 272.531 80.5266 272.56 80.6464 272.617C80.9244 272.746 81.0532 272.915 81.0396 273.119C81.0396 273.43 80.5989 273.742 80.1108 274.007C80.567 273.922 81.038 273.972 81.4668 274.149C81.6225 274.237 81.7371 274.384 81.7854 274.556C81.8276 274.664 81.8359 274.782 81.8092 274.895C81.7826 275.007 81.7223 275.109 81.6363 275.187C81.4845 275.295 81.3002 275.347 81.1142 275.336C80.229 275.241 79.3679 274.988 78.5717 274.59ZM79.1209 274.488C79.9955 274.861 81.0871 275.166 81.3718 274.963C81.3718 274.963 81.4735 274.881 81.4125 274.644C81.3849 274.555 81.3242 274.48 81.243 274.434C81.03 274.339 80.7979 274.295 80.565 274.305C80.0787 274.317 79.5949 274.379 79.1209 274.488ZM79.9413 272.895C79.4709 273.202 79.1138 273.654 78.9243 274.183C79.8057 273.844 80.6599 273.383 80.6735 273.112C80.6735 273.03 80.5447 272.949 80.4633 272.915C80.3815 272.877 80.2924 272.858 80.2023 272.858C80.1122 272.858 80.0231 272.877 79.9413 272.915V272.895Z" fill="#0D5FAA"/>
<path d="M42.0956 273.912C42.0956 273.424 48.0756 273.803 48.0756 273.803C48.0756 273.803 51.7435 277.539 55.3098 278.38C58.8761 279.221 56.8828 281.37 52.8826 281.37H43.038C40.2108 281.37 41.9803 278.956 42.0956 273.912Z" fill="#263238"/>
<path d="M48.7397 274.59C48.7213 274.583 48.7051 274.571 48.6922 274.556C48.6922 274.556 48.6922 274.556 48.6922 274.515C48.6893 274.5 48.6893 274.484 48.6922 274.468C48.6885 274.445 48.6885 274.422 48.6922 274.4C48.6922 274.332 49.221 272.949 50.0482 272.617C50.1679 272.56 50.2988 272.531 50.4313 272.531C50.5638 272.531 50.6946 272.56 50.8143 272.617C51.0923 272.746 51.2211 272.915 51.2076 273.119C51.2076 273.43 50.7669 273.742 50.2787 274.007C50.735 273.922 51.206 273.972 51.6347 274.149C51.7905 274.237 51.905 274.384 51.9534 274.556C51.9955 274.664 52.0039 274.782 51.9772 274.895C51.9506 275.007 51.8902 275.109 51.8042 275.187C51.6524 275.295 51.4681 275.347 51.2822 275.336C50.3969 275.241 49.5359 274.988 48.7397 274.59ZM49.2888 274.488C50.1635 274.861 51.255 275.166 51.5398 274.963C51.5398 274.963 51.6415 274.881 51.5805 274.644C51.5528 274.555 51.4922 274.48 51.411 274.434C51.198 274.339 50.9659 274.295 50.733 274.305C50.2467 274.317 49.7628 274.379 49.2888 274.488ZM50.1092 272.895C49.6389 273.202 49.2817 273.654 49.0922 274.183C49.9736 273.844 50.8279 273.383 50.8415 273.112C50.8415 273.03 50.7126 272.949 50.6313 272.915C50.5494 272.877 50.4604 272.858 50.3703 272.858C50.2801 272.858 50.1911 272.877 50.1092 272.915V272.895Z" fill="#0D5FAA"/>
<path opacity="0.2" d="M82.8572 139.566C79.8469 136.888 81.4334 128.671 81.4334 128.671L82.5792 129.172C82.6199 132.271 82.7148 135.939 82.8572 139.566Z" fill="black"/>
<path d="M117.537 154.773L122.561 157.336C122.561 157.336 124.595 156.753 125.449 157.228C126.304 157.702 130.277 161.933 130.134 162.72C129.992 163.506 126.311 166.11 125.199 165.574C124.087 165.038 121.171 160.882 121.049 160.381L115.537 157.974L117.537 154.773Z" fill="#E4897B"/>
<path d="M82.5454 121.002C85.5964 120.229 101.665 143.783 101.665 143.783L119.89 155.024L117.551 159.668C117.551 159.668 101.699 152.685 96.7902 148.997C91.8815 145.308 82.1047 133.145 82.1047 133.145C81.6348 130.827 81.3671 128.472 81.3047 126.107C81.3505 124.337 81.7735 122.596 82.5454 121.002Z" fill="#0D5FAA"/>
<path opacity="0.1" d="M82.5454 121.002C85.5964 120.229 101.665 143.783 101.665 143.783L119.89 155.024L117.551 159.668C117.551 159.668 101.699 152.685 96.7902 148.997C91.8815 145.308 82.1047 133.145 82.1047 133.145C81.6348 130.827 81.3671 128.472 81.3047 126.107C81.3505 124.337 81.7735 122.596 82.5454 121.002Z" fill="black"/>
</svg>
